<svg xmlns="http://www.w3.org/2000/svg" viewBox="0 0 64 64" width="64" height="64">
  <rect width="64" height="64" rx="12" fill="#faf7f2"/>
  <g transform="translate(32, 30)" fill="none" stroke="#cb997e" stroke-width="1.5" stroke-linecap="round">
    <path d="M -2 0 C -18 -10, -26 -28, -14 -34 C -4 -28, -2 -12, -2 0 Z" opacity="0.6" transform="scale(0.55)"/>
    <path d="M 2 0 C 16 -14, 28 -30, 18 -36 C 8 -28, 2 -12, 2 0 Z" opacity="0.6" transform="scale(0.55)"/>
    <path d="M -1 2 C -20 -4, -30 -18, -20 -26 C -10 -18, -2 -4, -1 2 Z" transform="scale(0.55)"/>
    <path d="M 1 2 C 22 -2, 32 -16, 22 -24 C 12 -16, 2 -4, 1 2 Z" transform="scale(0.55)"/>
    <circle cx="0" cy="-1" r="2" stroke-width="0.8" opacity="0.5"/>
    <path d="M 0 4 C 1 10, -1 16, -2 20" stroke-width="1.4"/>
  </g>
</svg>
