<svg xmlns="http://www.w3.org/2000/svg" xmlns:xlink="http://www.w3.org/1999/xlink" width="2000" zoomAndPan="magnify" viewBox="0 0 1500 1499.999933" height="2000" preserveAspectRatio="xMidYMid meet" version="1.0"><defs><g/><clipPath id="c2a94e5bc9"><path d="M 161.390625 0.792969 L 897 0.792969 L 897 736 L 161.390625 736 Z M 161.390625 0.792969 " clip-rule="nonzero"/></clipPath><clipPath id="9f1bf1bd5e"><path d="M 42 350 L 312 350 L 312 734 L 42 734 Z M 42 350 " clip-rule="nonzero"/></clipPath><clipPath id="33a7d472e5"><path d="M 5.003906 406.234375 L 233.644531 322.511719 L 364.523438 679.925781 L 135.878906 763.648438 Z M 5.003906 406.234375 " clip-rule="nonzero"/></clipPath><clipPath id="7fbf57ff5e"><path d="M 5.003906 406.234375 L 233.644531 322.511719 L 364.523438 679.925781 L 135.878906 763.648438 Z M 5.003906 406.234375 " clip-rule="nonzero"/></clipPath><clipPath id="2ae18bb4b9"><rect x="0" width="1062" y="0" height="897"/></clipPath></defs><g transform="matrix(1, 0, 0, 1, 247, 301)"><g clip-path="url(#2ae18bb4b9)"><g clip-path="url(#c2a94e5bc9)"><path fill="#e8b03f" d="M 319.304688 0.792969 L 896.199219 0.792969 L 896.199219 735.601562 L 161.390625 735.601562 L 161.390625 624.601562 C 163.308594 627.046875 165.242188 629.480469 167.191406 631.902344 L 167.191406 729.800781 L 890.382812 729.800781 L 890.382812 6.59375 L 315.9375 6.59375 C 317.042969 4.730469 318.117188 2.863281 319.191406 0.984375 Z M 319.304688 0.792969 " fill-opacity="1" fill-rule="evenodd"/></g><g clip-path="url(#9f1bf1bd5e)"><g clip-path="url(#33a7d472e5)"><g clip-path="url(#7fbf57ff5e)"><path fill="#e8b03f" d="M 221.132812 733.433594 C 222.933594 726.0625 224.078125 718.589844 224.566406 711.015625 C 224.804688 707.246094 224.90625 703.457031 224.835938 699.664062 C 224.726562 695.882812 224.371094 692.125 223.769531 688.386719 C 223.148438 684.65625 222.304688 680.976562 221.234375 677.347656 C 220.699219 675.53125 220.121094 673.730469 219.503906 671.949219 C 218.898438 670.152344 218.203125 668.398438 217.644531 666.578125 C 215.273438 659.300781 213.976562 651.839844 213.75 644.195312 C 213.558594 636.59375 213.941406 629.019531 214.894531 621.472656 C 215.328125 617.703125 215.8125 613.949219 216.3125 610.1875 C 216.8125 606.429688 217.300781 602.683594 217.925781 598.972656 C 219.125 591.507812 220.914062 583.945312 224.699219 577.257812 C 227.644531 572.308594 231.214844 567.859375 235.414062 563.917969 C 239.609375 559.972656 244.269531 556.683594 249.390625 554.046875 C 252.835938 552.398438 256.386719 551.023438 260.046875 549.925781 C 261.855469 549.359375 263.660156 548.769531 265.503906 548.273438 C 267.351562 547.773438 269.1875 547.332031 271.03125 546.894531 L 282.101562 544.320312 C 289.503906 542.761719 296.800781 540.808594 303.992188 538.457031 C 304.882812 538.128906 305.78125 537.863281 306.667969 537.546875 C 307.53125 537.265625 308.355469 536.890625 309.132812 536.421875 C 309.34375 536.292969 309.542969 536.164062 309.789062 536.039062 C 309.925781 535.976562 310.066406 535.925781 310.210938 535.886719 C 310.472656 535.789062 310.730469 535.796875 310.984375 535.914062 C 311.285156 536.082031 311.441406 536.335938 311.441406 536.683594 C 311.449219 536.847656 311.433594 537.015625 311.402344 537.175781 C 311.347656 537.4375 311.269531 537.695312 311.167969 537.945312 C 310.808594 538.855469 310.378906 539.734375 309.875 540.578125 C 307.957031 543.976562 305.496094 546.921875 302.484375 549.410156 C 300.992188 550.644531 299.390625 551.71875 297.679688 552.628906 C 295.972656 553.582031 294.179688 554.328125 292.300781 554.867188 C 288.566406 555.949219 284.703125 556.089844 280.957031 556.425781 C 277.199219 556.722656 273.480469 557.269531 269.800781 558.066406 C 266.109375 558.789062 262.503906 559.8125 258.984375 561.144531 C 255.480469 562.5 252.195312 564.257812 249.121094 566.417969 C 246.078125 568.636719 243.195312 571.042969 240.46875 573.640625 C 234.941406 578.800781 229.691406 584.21875 224.199219 589.507812 C 222.800781 590.851562 221.285156 592.054688 219.65625 593.109375 C 218.804688 593.648438 217.894531 594.066406 216.929688 594.363281 C 215.933594 594.671875 214.917969 594.78125 213.878906 594.691406 C 212.863281 594.613281 211.886719 594.363281 210.953125 593.949219 C 210.015625 593.5625 209.148438 593.058594 208.351562 592.433594 C 207.523438 591.796875 206.832031 591.039062 206.285156 590.152344 C 205.8125 589.277344 205.429688 588.363281 205.140625 587.410156 C 204.566406 585.574219 204.097656 583.710938 203.730469 581.824219 C 203.546875 580.882812 203.386719 579.941406 203.246094 578.992188 L 203.054688 577.578125 C 202.992188 577.121094 202.914062 576.6875 202.8125 576.238281 C 202.371094 574.460938 201.777344 572.644531 201.21875 570.847656 L 199.488281 565.441406 L 195.9375 554.660156 C 194.777344 551.054688 193.523438 547.492188 192.121094 543.996094 C 190.746094 540.441406 189.550781 536.828125 188.539062 533.152344 C 188.300781 532.269531 188 531.410156 187.636719 530.570312 C 187.238281 529.765625 186.757812 529.011719 186.199219 528.308594 C 185.0625 526.847656 183.804688 525.441406 182.527344 524.058594 C 181.25 522.675781 179.9375 521.339844 178.605469 519.949219 C 178.246094 519.582031 177.917969 519.183594 177.621094 518.761719 C 177.285156 518.261719 177.101562 517.707031 177.066406 517.105469 C 177.011719 515.972656 177.296875 514.933594 177.917969 513.988281 C 179.050781 512.367188 180.378906 510.933594 181.910156 509.683594 C 183.324219 508.367188 184.84375 507.179688 186.460938 506.125 C 189.632812 504.101562 192.621094 501.839844 195.433594 499.339844 C 196.847656 498.136719 198.132812 496.804688 199.28125 495.347656 C 200.375 493.859375 201.234375 492.25 201.871094 490.519531 C 202.570312 488.777344 203.292969 486.980469 204.164062 485.253906 C 205.035156 483.539062 205.992188 481.875 207.039062 480.261719 C 209.132812 477.046875 211.480469 474.03125 214.085938 471.21875 C 215.382812 469.804688 216.699219 468.445312 218.015625 467.078125 C 219.335938 465.664062 220.757812 464.359375 222.28125 463.160156 C 223.855469 462.019531 225.523438 461.039062 227.289062 460.222656 C 228.972656 459.414062 230.601562 458.5 232.171875 457.484375 C 233.742188 456.53125 235.179688 455.414062 236.496094 454.132812 C 236.777344 453.824219 237.019531 453.484375 237.214844 453.117188 C 237.417969 452.734375 237.589844 452.339844 237.726562 451.929688 C 238 451.09375 238.140625 450.234375 238.15625 449.355469 C 238.160156 448.441406 238.097656 447.535156 237.964844 446.636719 C 237.851562 445.730469 237.667969 444.84375 237.40625 443.972656 C 236.90625 442.21875 236.105469 440.617188 235 439.167969 C 234.460938 438.460938 233.835938 437.832031 233.132812 437.285156 C 232.429688 436.722656 231.667969 436.253906 230.847656 435.882812 C 230.160156 435.5 229.4375 435.40625 228.671875 435.597656 C 228.363281 435.792969 228.097656 436.035156 227.878906 436.332031 C 227.578125 436.671875 227.253906 437.039062 227 437.40625 L 225.304688 439.621094 C 224.714844 440.429688 224.09375 441.152344 223.472656 441.875 C 222.851562 442.597656 222.222656 443.289062 221.503906 444.011719 C 220.773438 444.703125 219.980469 445.304688 219.117188 445.816406 C 217.425781 446.796875 215.660156 447.613281 213.820312 448.269531 C 212.023438 448.925781 210.25 449.578125 208.472656 450.226562 C 204.886719 451.542969 201.246094 452.671875 197.546875 453.617188 C 195.683594 454.0625 193.808594 454.402344 191.910156 454.691406 C 190.964844 454.832031 190.015625 454.949219 189.085938 455.070312 C 188.199219 455.152344 187.335938 455.34375 186.496094 455.644531 C 184.855469 456.414062 183.449219 457.488281 182.277344 458.871094 C 181.085938 460.253906 180.128906 461.785156 179.410156 463.464844 C 178.664062 465.140625 178.246094 466.898438 178.152344 468.730469 C 178.09375 469.636719 178.101562 470.582031 178.109375 471.519531 C 178.121094 472.441406 178.179688 473.359375 178.285156 474.277344 C 178.511719 476.125 178.875 477.964844 179.28125 479.800781 C 179.6875 481.636719 180.148438 483.449219 180.714844 485.234375 C 180.996094 486.125 181.308594 487.027344 181.570312 487.957031 C 181.832031 488.890625 182.054688 489.84375 182.234375 490.789062 C 182.601562 492.675781 182.855469 494.574219 182.996094 496.492188 C 183.136719 498.421875 183.117188 500.351562 182.945312 502.277344 C 182.789062 504.226562 182.414062 506.132812 181.824219 507.996094 C 180.585938 511.691406 178.695312 515.015625 176.152344 517.972656 C 174.886719 519.441406 173.488281 520.773438 171.960938 521.96875 C 170.441406 523.136719 168.859375 524.214844 167.214844 525.203125 L 157.546875 531.257812 C 154.320312 533.246094 151.105469 535.253906 147.773438 537.109375 C 146.09375 538.054688 144.359375 538.832031 142.664062 539.664062 C 140.96875 540.496094 139.246094 541.3125 137.519531 542.105469 C 134.078125 543.777344 130.515625 545.144531 126.839844 546.210938 C 124.976562 546.707031 123.082031 547.046875 121.160156 547.234375 C 119.257812 547.429688 117.355469 547.558594 115.4375 547.5625 C 111.542969 547.625 107.761719 547.007812 104.089844 545.714844 C 100.398438 544.371094 97.164062 542.3125 94.390625 539.527344 C 93.019531 538.152344 91.828125 536.632812 90.816406 534.972656 C 90.316406 534.144531 89.875 533.285156 89.492188 532.394531 C 89.09375 531.511719 88.746094 530.609375 88.449219 529.6875 C 87.820312 527.816406 87.539062 525.894531 87.605469 523.925781 C 87.6875 521.890625 88.300781 520.027344 89.4375 518.339844 C 90.648438 516.785156 92.097656 515.496094 93.789062 514.480469 C 95.355469 513.347656 97.035156 512.410156 98.820312 511.664062 C 100.613281 510.910156 102.472656 510.40625 104.402344 510.148438 C 105.367188 510.003906 106.335938 509.941406 107.3125 509.96875 C 108.277344 510.035156 109.234375 510.164062 110.1875 510.351562 C 112.085938 510.710938 113.90625 511.203125 115.738281 511.664062 C 117.574219 512.125 119.417969 512.621094 121.230469 513.195312 C 122.140625 513.480469 123.046875 513.796875 123.9375 514.125 C 124.796875 514.476562 125.683594 514.742188 126.59375 514.925781 C 128.4375 515.203125 130.289062 515.261719 132.148438 515.101562 C 134.019531 514.941406 135.875 514.667969 137.714844 514.277344 C 139.570312 513.898438 141.417969 513.515625 143.253906 513.082031 C 146.964844 512.171875 150.722656 511.585938 154.535156 511.324219 C 156.433594 511.167969 158.339844 511.113281 160.246094 511.152344 C 162.144531 511.238281 164.035156 511.433594 165.910156 511.734375 C 167.777344 511.929688 169.644531 511.933594 171.515625 511.753906 C 172.484375 511.636719 173.457031 511.628906 174.433594 511.722656 C 175.015625 511.777344 175.503906 512.023438 175.890625 512.464844 C 176.257812 512.941406 176.402344 513.480469 176.320312 514.078125 C 176.195312 515.132812 175.765625 516.042969 175.027344 516.808594 C 174.285156 517.542969 173.398438 518.011719 172.371094 518.207031 C 171.40625 518.398438 170.433594 518.460938 169.453125 518.386719 L 166.628906 518.210938 C 164.75 518.105469 162.878906 518.148438 161.007812 518.339844 C 160.09375 518.453125 159.21875 518.726562 158.246094 518.917969 C 157.273438 519.050781 156.296875 519.058594 155.324219 518.941406 C 153.414062 518.753906 151.582031 518.390625 149.683594 518.050781 L 144.109375 516.921875 C 140.402344 516.152344 136.6875 515.390625 132.992188 514.535156 C 129.277344 513.710938 125.617188 512.691406 122.011719 511.476562 C 120.214844 510.851562 118.4375 510.128906 116.714844 509.34375 C 114.992188 508.558594 113.328125 507.589844 111.683594 506.652344 C 108.355469 504.816406 105.195312 502.726562 102.199219 500.386719 C 99.199219 498.007812 96.539062 495.292969 94.222656 492.242188 C 91.90625 489.195312 90.007812 485.90625 88.519531 482.375 C 87.058594 478.847656 85.960938 475.207031 85.230469 471.460938 C 84.851562 469.597656 84.546875 467.726562 84.273438 465.84375 C 84 463.960938 83.78125 462.074219 83.578125 460.191406 C 83.210938 456.390625 83.246094 452.59375 83.691406 448.800781 C 83.964844 444.964844 84.851562 441.273438 86.347656 437.726562 C 87.9375 434.195312 90.171875 431.132812 93.046875 428.535156 C 95.800781 425.910156 98.785156 423.578125 101.996094 421.539062 C 103.636719 420.546875 105.355469 419.710938 107.15625 419.042969 C 108.953125 418.371094 110.800781 417.875 112.691406 417.554688 C 114.585938 417.230469 116.492188 417.089844 118.410156 417.128906 C 120.332031 417.167969 122.230469 417.386719 124.105469 417.78125 C 126.003906 418.128906 127.828125 418.707031 129.582031 419.503906 C 131.347656 420.34375 132.882812 421.492188 134.195312 422.941406 C 135.476562 424.390625 136.511719 426.003906 137.300781 427.773438 C 138.125 429.535156 138.636719 431.382812 138.835938 433.320312 C 138.945312 435.222656 138.886719 437.121094 138.65625 439.015625 C 138.480469 440.894531 138.40625 442.773438 138.429688 444.660156 C 138.511719 448.4375 139.042969 452.152344 140.023438 455.804688 C 140.503906 457.628906 141.097656 459.414062 141.714844 461.207031 C 142.335938 462.996094 143.011719 464.742188 143.78125 466.460938 C 145.332031 469.90625 147.265625 473.121094 149.585938 476.101562 C 150.710938 477.609375 151.984375 478.976562 153.402344 480.210938 C 154.152344 480.792969 154.863281 481.417969 155.542969 482.085938 C 156.207031 482.78125 156.824219 483.515625 157.394531 484.292969 C 159.675781 487.394531 161.445312 490.765625 162.699219 494.40625 L 163.679688 497.078125 C 163.960938 497.949219 164.339844 498.78125 164.820312 499.5625 C 164.90625 499.738281 165.03125 499.886719 165.1875 500.007812 C 165.34375 500.128906 165.515625 500.207031 165.710938 500.246094 C 165.902344 500.285156 166.097656 500.28125 166.289062 500.230469 C 166.476562 500.179688 166.648438 500.089844 166.796875 499.964844 C 167.515625 499.414062 168.085938 498.738281 168.507812 497.9375 C 169.550781 496.371094 170.097656 494.648438 170.15625 492.765625 C 170.152344 491.882812 169.996094 490.921875 169.941406 489.949219 C 169.878906 488.972656 169.933594 487.996094 170.101562 487.03125 C 170.332031 486.074219 170.679688 485.15625 171.140625 484.285156 C 171.578125 483.425781 172.058594 482.605469 172.566406 481.792969 C 173.566406 480.167969 174.660156 478.617188 175.777344 477.074219 C 178.011719 473.992188 180.402344 471.039062 182.941406 468.207031 C 188.019531 462.605469 192.957031 456.867188 197.710938 450.972656 C 200.085938 448.03125 202.417969 445.0625 204.585938 441.964844 C 206.753906 438.867188 208.808594 435.699219 210.8125 432.488281 C 212.8125 429.277344 214.816406 426.0625 216.773438 422.824219 C 218.757812 419.621094 220.546875 416.308594 222.136719 412.890625 C 223.714844 409.457031 224.675781 405.855469 225.027344 402.09375 C 225.566406 398.359375 225.433594 394.648438 224.632812 390.957031 C 224.214844 389.140625 223.597656 387.390625 222.792969 385.710938 C 221.964844 384.039062 220.925781 382.503906 219.683594 381.113281 C 218.382812 379.679688 217.257812 378.121094 216.3125 376.433594 C 215.433594 374.691406 214.753906 372.875 214.273438 370.980469 C 213.835938 369.136719 213.496094 367.277344 213.246094 365.398438 C 212.953125 363.558594 212.394531 361.804688 211.566406 360.136719 C 210.75 358.464844 209.738281 356.925781 208.527344 355.511719 C 207.347656 354.085938 205.90625 353.003906 204.207031 352.269531 C 202.535156 351.484375 200.777344 351.105469 198.929688 351.128906 C 198.050781 351.160156 197.238281 351.402344 196.488281 351.863281 C 195.742188 352.332031 195.230469 352.988281 194.949219 353.824219 C 194.203125 355.652344 193.160156 357.285156 191.8125 358.726562 C 190.441406 360.105469 188.972656 361.363281 187.398438 362.503906 C 184.371094 364.78125 181.4375 367.210938 178.039062 369.074219 C 174.605469 370.851562 171 372.128906 167.214844 372.90625 C 163.484375 373.714844 159.714844 374.273438 155.910156 374.582031 C 154.070312 374.625 152.246094 374.832031 150.441406 375.214844 C 148.671875 375.671875 147.257812 376.644531 146.195312 378.132812 C 145.167969 379.554688 144.746094 381.417969 144.324219 383.242188 C 143.910156 385.066406 143.628906 386.90625 143.480469 388.769531 C 143.289062 390.632812 143.226562 392.5 143.289062 394.371094 C 143.347656 395.296875 143.40625 396.230469 143.519531 397.15625 C 143.570312 397.625 143.636719 398.078125 143.703125 398.539062 L 143.820312 399.222656 L 143.882812 399.5625 C 143.902344 399.648438 143.917969 399.734375 143.921875 399.824219 L 143.949219 399.894531 C 144.476562 402.058594 145.207031 404.148438 146.148438 406.167969 C 147.066406 408.214844 148.082031 410.234375 149.09375 412.253906 L 150.628906 415.285156 L 152.242188 418.238281 L 155.5 424.1875 L 162.019531 436.117188 L 165.273438 442.097656 C 166.335938 444.109375 167.519531 446.054688 168.421875 448.132812 C 170.460938 452.234375 172.125 456.484375 173.414062 460.878906 C 174.625 465.335938 175.199219 469.871094 175.140625 474.492188 C 175.109375 479.070312 174.722656 483.59375 174.390625 488.109375 C 174.332031 489.273438 174.183594 490.425781 173.941406 491.566406 C 173.695312 492.710938 173.375 493.820312 173.070312 494.894531 C 172.445312 497.054688 171.929688 499.199219 172.339844 501.246094 C 172.558594 502.289062 172.9375 503.273438 173.472656 504.195312 C 173.992188 505.148438 174.625 506.039062 175.253906 507.03125 C 175.425781 507.292969 175.582031 507.5625 175.722656 507.84375 C 175.933594 508.226562 176.019531 508.636719 175.984375 509.074219 C 175.972656 509.234375 175.921875 509.386719 175.839844 509.523438 C 175.761719 509.679688 175.652344 509.808594 175.515625 509.917969 C 175.285156 510.089844 175.023438 510.1875 174.734375 510.203125 C 174.378906 510.210938 174.027344 510.171875 173.679688 510.078125 C 172.507812 509.78125 171.476562 509.429688 170.386719 509.140625 C 168.234375 508.527344 166.050781 508.0625 163.835938 507.738281 C 161.605469 507.398438 159.367188 507.066406 157.128906 506.804688 C 148.207031 505.53125 139.203125 506.542969 130.191406 507.339844 C 127.941406 507.558594 125.667969 507.753906 123.472656 508.027344 C 121.261719 508.234375 119.125 508.742188 117.054688 509.554688 C 112.933594 511.160156 109.101562 513.582031 105.25 516 C 101.414062 518.367188 97.710938 520.925781 94.136719 523.675781 C 92.367188 525.058594 90.632812 526.488281 88.957031 527.980469 C 87.28125 529.46875 85.671875 531.101562 83.886719 532.554688 C 82.097656 534.007812 80.246094 535.332031 78.328125 536.597656 C 76.402344 537.890625 74.382812 539.003906 72.265625 539.941406 C 71.183594 540.417969 70.066406 540.792969 68.917969 541.070312 C 67.777344 541.328125 66.632812 541.523438 65.472656 541.652344 C 63.019531 541.980469 60.664062 541.644531 58.40625 540.636719 C 56.179688 539.550781 54.40625 537.960938 53.089844 535.863281 C 52.4375 534.878906 51.882812 533.84375 51.421875 532.753906 C 50.953125 531.628906 50.660156 530.457031 50.542969 529.242188 C 50.378906 526.945312 50.355469 524.648438 50.46875 522.347656 L 50.644531 515.5625 C 50.703125 513.308594 50.761719 511.050781 50.816406 508.78125 C 50.871094 506.511719 50.824219 504.28125 50.628906 502.078125 C 50.398438 499.859375 50.019531 497.671875 49.496094 495.503906 C 48.996094 493.335938 48.367188 491.207031 47.613281 489.113281 C 47.230469 488.066406 46.855469 487.035156 46.339844 486.039062 C 45.824219 485.039062 45.324219 484.019531 44.878906 482.917969 C 44.449219 481.828125 44.089844 480.714844 43.804688 479.582031 C 43.507812 478.453125 43.269531 477.3125 43.09375 476.160156 C 42.691406 473.796875 42.691406 471.4375 43.09375 469.078125 C 43.515625 466.691406 44.414062 464.503906 45.789062 462.511719 C 47.175781 460.582031 48.832031 458.921875 50.757812 457.53125 C 52.585938 456.085938 54.554688 454.863281 56.664062 453.863281 C 58.78125 452.898438 60.964844 452.140625 63.222656 451.585938 C 64.335938 451.285156 65.441406 450.996094 66.5625 450.769531 C 67.683594 450.546875 68.808594 450.300781 69.941406 450.109375 C 74.460938 449.355469 79.011719 448.972656 83.59375 448.953125 C 85.882812 448.9375 88.1875 449.039062 90.460938 449.183594 C 91.589844 449.265625 92.773438 449.378906 93.898438 449.570312 C 95.019531 449.761719 96.160156 449.945312 97.28125 450.15625 C 101.785156 451.050781 106.175781 452.34375 110.449219 454.027344 C 112.574219 454.859375 114.640625 455.804688 116.753906 456.746094 C 118.851562 457.695312 120.886719 458.757812 122.863281 459.9375 C 124.820312 461.167969 126.660156 462.425781 128.585938 463.597656 C 130.511719 464.769531 132.445312 465.917969 134.398438 467.046875 C 138.332031 469.289062 142.296875 471.457031 146.292969 473.554688 C 148.277344 474.597656 150.332031 475.617188 152.316406 476.898438 C 153.320312 477.582031 154.207031 478.394531 154.976562 479.332031 C 155.730469 480.234375 156.414062 481.1875 157.03125 482.183594 C 158.234375 484.167969 159.261719 486.238281 160.109375 488.398438 C 160.546875 489.449219 160.960938 490.503906 161.394531 491.519531 C 161.785156 492.507812 162.296875 493.425781 162.921875 494.28125 C 163.042969 494.445312 163.183594 494.59375 163.339844 494.726562 C 163.496094 494.855469 163.667969 494.964844 163.851562 495.054688 C 164.035156 495.144531 164.226562 495.214844 164.429688 495.257812 C 164.628906 495.300781 164.832031 495.320312 165.035156 495.316406 C 165.238281 495.3125 165.441406 495.28125 165.636719 495.230469 C 165.835938 495.175781 166.023438 495.101562 166.203125 495.003906 C 166.382812 494.902344 166.550781 494.785156 166.699219 494.648438 C 166.851562 494.511719 166.984375 494.355469 167.101562 494.1875 C 167.308594 493.695312 166.816406 492.617188 166.3125 491.667969 C 165.804688 490.722656 165.230469 489.664062 164.710938 488.660156 C 163.585938 486.628906 162.648438 484.511719 161.894531 482.316406 C 161.226562 480.054688 160.878906 477.492188 161.953125 475.054688 C 162.207031 474.601562 162.414062 474.128906 162.578125 473.636719 C 162.710938 473.136719 162.804688 472.625 162.859375 472.109375 C 162.984375 471.046875 162.953125 469.992188 162.769531 468.9375 C 162.59375 467.746094 162.570312 466.550781 162.695312 465.351562 C 162.746094 464.746094 162.84375 464.144531 162.992188 463.550781 C 163.144531 462.980469 163.324219 462.417969 163.535156 461.867188 C 163.875 460.863281 164.046875 459.832031 164.046875 458.773438 C 164.113281 457.707031 164.058594 456.648438 163.875 455.597656 C 163.785156 455.128906 163.621094 454.6875 163.390625 454.269531 C 163.296875 454.097656 163.179688 453.945312 163.039062 453.816406 C 162.9375 453.71875 162.820312 453.648438 162.6875 453.605469 C 162.277344 453.574219 161.882812 453.636719 161.5 453.800781 C 160.996094 453.984375 160.503906 454.191406 160.019531 454.421875 C 158.042969 455.378906 156 456.480469 154.0625 457.492188 C 153.59375 457.746094 153.144531 458.023438 152.714844 458.332031 C 152.527344 458.464844 152.355469 458.617188 152.199219 458.785156 C 152.054688 458.953125 151.878906 459.167969 151.726562 459.363281 C 151.125 460.230469 150.652344 461.167969 150.3125 462.167969 C 149.953125 463.1875 149.695312 464.230469 149.539062 465.300781 C 149.457031 465.835938 149.429688 466.332031 149.390625 466.914062 C 149.378906 467.554688 149.277344 468.183594 149.082031 468.796875 C 148.824219 469.492188 148.40625 470.070312 147.824219 470.53125 C 147.285156 470.9375 146.695312 471.238281 146.054688 471.429688 C 144.898438 471.78125 143.914062 472.070312 142.890625 472.460938 L 139.71875 473.6875 C 138.625 474.085938 137.554688 474.476562 136.476562 474.800781 C 135.402344 475.125 134.335938 475.523438 133.355469 475.945312 C 133.117188 476.035156 132.882812 476.140625 132.652344 476.253906 C 132.5625 476.296875 132.472656 476.347656 132.390625 476.40625 L 132.3125 476.433594 L 132.183594 476.570312 C 131.835938 476.929688 131.542969 477.332031 131.308594 477.773438 C 130.808594 478.675781 130.492188 479.632812 130.363281 480.65625 C 130.234375 481.675781 130.296875 482.683594 130.558594 483.679688 C 131.078125 485.535156 132.886719 486.925781 134.644531 488.246094 C 136.40625 489.570312 138.335938 490.808594 140.21875 492.050781 C 142.097656 493.292969 144.007812 494.515625 145.917969 495.699219 C 149.691406 498.140625 153.636719 500.261719 157.75 502.0625 C 159.816406 502.875 161.96875 503.652344 164.078125 504.332031 C 165.070312 504.679688 166.089844 504.894531 167.140625 504.980469 C 168.082031 504.964844 168.34375 504.640625 168.339844 503.738281 C 168.203125 502.699219 167.925781 501.699219 167.507812 500.738281 C 167.125 499.699219 166.648438 498.679688 166.199219 497.675781 L 163.414062 491.472656 C 161.582031 487.308594 159.886719 483.097656 158.246094 478.863281 C 157.40625 476.726562 156.675781 474.554688 156.054688 472.34375 C 155.421875 470.082031 155.101562 467.777344 155.089844 465.425781 C 155.078125 463.078125 155.378906 460.769531 155.988281 458.503906 C 156.5625 456.273438 157.265625 454.105469 157.964844 451.953125 C 159.371094 447.640625 160.757812 443.335938 162.082031 439.015625 C 164.835938 430.410156 167.121094 421.679688 168.933594 412.824219 C 170.644531 403.957031 171.570312 395.003906 171.714844 385.972656 C 171.707031 383.734375 171.53125 381.507812 171.183594 379.296875 C 170.804688 377.089844 170.300781 374.914062 169.675781 372.765625 C 169.074219 370.617188 168.242188 368.558594 167.179688 366.597656 C 166.113281 364.660156 164.796875 362.914062 163.230469 361.355469 C 161.660156 359.796875 159.90625 358.488281 157.964844 357.433594 C 156.019531 356.398438 153.953125 355.796875 151.757812 355.625 C 149.570312 355.5 147.441406 355.8125 145.378906 356.554688 C 143.277344 357.238281 141.359375 358.265625 139.628906 359.632812 C 137.949219 361.019531 136.402344 362.71875 134.691406 364.238281 C 132.996094 365.789062 131.207031 367.21875 129.320312 368.527344 C 127.425781 369.832031 125.464844 371 123.507812 372.140625 C 121.554688 373.28125 119.59375 374.460938 117.546875 375.472656 C 113.492188 377.585938 109.285156 379.339844 104.929688 380.734375 C 100.570312 382.082031 96.207031 383.246094 91.871094 384.539062 C 89.699219 385.183594 87.539062 385.835938 85.398438 386.539062 C 84.332031 386.851562 83.292969 387.234375 82.277344 387.683594 C 81.285156 388.144531 80.359375 388.714844 79.5 389.386719 C 77.753906 390.683594 76.546875 392.542969 75.21875 394.402344 C 73.851562 396.152344 72.714844 398.046875 71.808594 400.078125 L 71.816406 399.664062 C 71.859375 399.828125 71.851562 399.984375 71.785156 400.136719 L 71.757812 400.210938 L 71.710938 400.34375 L 71.617188 400.617188 L 71.449219 401.171875 C 71.328125 401.550781 71.234375 401.921875 71.136719 402.304688 C 70.957031 403.066406 70.8125 403.835938 70.707031 404.613281 C 70.480469 406.164062 70.460938 407.714844 70.640625 409.269531 C 71.234375 412.390625 72.496094 415.21875 74.425781 417.746094 C 76.289062 420.324219 78.347656 422.734375 80.613281 424.96875 C 82.863281 427.234375 85.296875 429.273438 87.925781 431.085938 C 90.539062 432.925781 93.210938 434.734375 95.816406 436.605469 C 98.421875 438.476562 101.03125 440.378906 103.605469 442.304688 C 106.179688 444.230469 108.730469 446.199219 111.238281 448.207031 C 113.742188 450.210938 116.332031 452.085938 118.957031 453.929688 C 121.578125 455.777344 124.246094 457.527344 126.910156 459.359375 C 129.566406 461.21875 132.058594 463.277344 134.386719 465.535156 C 136.734375 467.796875 138.964844 470.171875 141.066406 472.660156 C 143.148438 475.105469 145.226562 477.566406 147.195312 480.15625 C 149.160156 482.746094 151.070312 485.296875 152.976562 487.875 C 153.929688 489.164062 154.90625 490.453125 155.804688 491.796875 C 156.703125 493.140625 157.558594 494.511719 158.417969 495.859375 C 159.253906 497.207031 160.203125 498.46875 161.269531 499.640625 C 162.359375 500.800781 163.523438 501.878906 164.757812 502.878906 C 165.980469 503.890625 167.273438 504.800781 168.636719 505.613281 C 169.285156 506.011719 169.976562 506.296875 170.71875 506.46875 C 170.863281 506.496094 171.007812 506.496094 171.15625 506.46875 C 171.273438 506.425781 171.3125 506.410156 171.363281 506.3125 C 171.457031 506.015625 171.472656 505.714844 171.40625 505.410156 C 171.011719 503.886719 170.433594 502.4375 169.671875 501.0625 C 168.949219 499.648438 168.105469 498.3125 167.148438 497.046875 C 165.140625 494.558594 162.898438 492.304688 160.414062 490.292969 C 159.199219 489.257812 157.949219 488.261719 156.664062 487.304688 C 155.421875 486.324219 154.085938 485.40625 152.816406 484.390625 C 152.15625 483.886719 151.558594 483.3125 151.023438 482.675781 C 150.460938 481.992188 150.113281 481.214844 149.980469 480.339844 C 149.8125 479.449219 149.9375 478.601562 150.359375 477.800781 C 150.769531 477.121094 151.125 476.417969 151.425781 475.683594 C 151.917969 474.15625 152.125 472.59375 152.042969 470.992188 C 151.960938 469.390625 151.597656 467.855469 150.953125 466.386719 C 149.726562 463.425781 148.132812 460.679688 146.167969 458.152344 C 145.246094 456.851562 144.214844 455.648438 143.074219 454.539062 C 141.9375 453.421875 140.65625 452.457031 139.464844 451.355469 C 137.128906 449.105469 135.125 446.59375 133.453125 443.816406 C 132.605469 442.445312 131.800781 441.046875 131.085938 439.59375 C 130.71875 438.863281 130.410156 438.113281 130.152344 437.339844 C 130.089844 437.136719 130.042969 436.929688 130.015625 436.71875 C 129.941406 436.449219 129.976562 436.195312 130.113281 435.953125 C 130.246094 435.808594 130.40625 435.75 130.597656 435.777344 C 130.722656 435.796875 130.839844 435.832031 130.949219 435.886719 C 131.148438 435.976562 131.335938 436.082031 131.515625 436.203125 C 134.097656 438.175781 136.417969 440.414062 138.484375 442.921875 C 140.527344 445.40625 142.476562 447.957031 144.429688 450.480469 C 144.921875 451.125 145.402344 451.761719 145.875 452.421875 C 146.386719 453.074219 146.777344 453.789062 147.050781 454.570312 C 147.519531 456.132812 147.769531 457.726562 147.804688 459.359375 C 148.121094 462.5625 148.917969 465.644531 150.195312 468.601562 C 151.394531 471.578125 152.742188 474.484375 154.199219 477.351562 C 157.113281 483.066406 160.292969 488.65625 163.617188 494.152344 L 163.460938 494.207031 C 160.113281 488.722656 156.90625 483.152344 153.960938 477.429688 C 152.5 474.574219 151.128906 471.660156 149.914062 468.675781 C 148.613281 465.695312 147.792969 462.585938 147.457031 459.351562 C 147.425781 457.75 147.175781 456.183594 146.699219 454.652344 C 146.441406 453.90625 146.0625 453.222656 145.570312 452.605469 C 145.101562 451.953125 144.613281 451.320312 144.121094 450.683594 C 142.15625 448.144531 140.1875 445.597656 138.136719 443.136719 C 136.109375 440.675781 133.828125 438.480469 131.289062 436.550781 C 131.132812 436.441406 130.96875 436.347656 130.796875 436.269531 C 130.632812 436.179688 130.480469 436.203125 130.519531 436.214844 C 130.558594 436.226562 130.472656 436.453125 130.507812 436.617188 C 130.535156 436.804688 130.578125 436.988281 130.640625 437.167969 C 130.886719 437.921875 131.191406 438.648438 131.554688 439.351562 C 132.265625 440.78125 133.054688 442.171875 133.914062 443.523438 C 135.558594 446.269531 137.53125 448.753906 139.839844 450.976562 C 141.003906 452.054688 142.296875 453.023438 143.472656 454.152344 C 144.644531 455.28125 145.707031 456.503906 146.65625 457.820312 C 148.660156 460.382812 150.289062 463.167969 151.546875 466.167969 C 152.203125 467.695312 152.574219 469.289062 152.652344 470.949219 C 152.734375 472.609375 152.523438 474.230469 152.015625 475.816406 C 151.703125 476.566406 151.339844 477.289062 150.921875 477.984375 C 150.566406 478.660156 150.464844 479.375 150.617188 480.125 C 150.8125 481.621094 151.976562 482.75 153.21875 483.722656 C 154.460938 484.691406 155.777344 485.628906 157.0625 486.601562 C 158.347656 487.574219 159.617188 488.570312 160.832031 489.644531 C 163.382812 491.695312 165.6875 493.992188 167.738281 496.539062 C 168.730469 497.835938 169.597656 499.210938 170.339844 500.667969 C 171.15625 502.109375 171.765625 503.632812 172.164062 505.238281 C 172.285156 505.726562 172.25 506.203125 172.058594 506.667969 C 171.984375 506.808594 171.886719 506.929688 171.769531 507.03125 C 171.644531 507.125 171.503906 507.195312 171.355469 507.234375 C 171.101562 507.296875 170.847656 507.304688 170.59375 507.257812 C 169.753906 507.074219 168.96875 506.757812 168.234375 506.308594 C 166.828125 505.480469 165.492188 504.546875 164.234375 503.503906 C 162.96875 502.480469 161.773438 501.382812 160.652344 500.203125 C 159.554688 498.992188 158.570312 497.695312 157.703125 496.308594 C 156.835938 494.953125 156 493.585938 155.101562 492.269531 C 154.203125 490.949219 153.261719 489.664062 152.289062 488.382812 C 150.367188 485.800781 148.453125 483.226562 146.496094 480.695312 C 144.542969 478.160156 142.46875 475.714844 140.382812 473.273438 C 138.320312 470.828125 136.144531 468.492188 133.847656 466.265625 C 131.546875 464.046875 129.085938 462.023438 126.464844 460.195312 C 123.828125 458.390625 121.121094 456.636719 118.488281 454.785156 C 115.855469 452.933594 113.234375 451.050781 110.71875 449.042969 C 108.203125 447.03125 105.660156 445.09375 103.089844 443.175781 C 100.519531 441.257812 97.917969 439.324219 95.324219 437.46875 C 92.734375 435.609375 90.027344 433.804688 87.390625 431.972656 C 84.710938 430.128906 82.226562 428.054688 79.933594 425.75 C 77.605469 423.484375 75.480469 421.039062 73.5625 418.414062 C 71.511719 415.738281 70.175781 412.742188 69.554688 409.425781 C 69.351562 407.773438 69.367188 406.121094 69.601562 404.46875 C 69.710938 403.664062 69.863281 402.863281 70.058594 402.070312 C 70.160156 401.671875 70.261719 401.269531 70.375 400.875 L 70.5625 400.285156 L 70.710938 399.839844 L 70.746094 399.765625 C 70.707031 399.878906 70.714844 399.988281 70.769531 400.09375 L 70.769531 399.6875 C 71.699219 397.558594 72.875 395.574219 74.292969 393.738281 C 74.945312 392.808594 75.585938 391.875 76.304688 390.964844 C 77.039062 390.03125 77.867188 389.199219 78.800781 388.46875 C 79.734375 387.742188 80.730469 387.125 81.796875 386.617188 C 82.855469 386.148438 83.941406 385.753906 85.050781 385.425781 C 87.214844 384.703125 89.378906 384.042969 91.5625 383.398438 C 95.898438 382.089844 100.28125 380.910156 104.582031 379.566406 C 108.867188 378.175781 113.003906 376.4375 116.996094 374.347656 C 118.988281 373.316406 120.929688 372.183594 122.867188 371.039062 C 124.800781 369.898438 126.75 368.730469 128.585938 367.464844 C 130.421875 366.183594 132.164062 364.789062 133.816406 363.277344 C 135.480469 361.78125 136.988281 360.113281 138.792969 358.613281 C 139.703125 357.855469 140.683594 357.203125 141.730469 356.648438 C 142.769531 356.117188 143.84375 355.65625 144.945312 355.269531 C 147.199219 354.476562 149.515625 354.160156 151.898438 354.316406 C 154.289062 354.492188 156.539062 355.144531 158.652344 356.269531 C 160.71875 357.382812 162.585938 358.761719 164.253906 360.410156 C 165.921875 362.058594 167.324219 363.90625 168.460938 365.960938 C 169.570312 368.003906 170.445312 370.144531 171.085938 372.382812 C 171.417969 373.480469 171.695312 374.601562 171.945312 375.714844 C 172.191406 376.828125 172.433594 377.953125 172.613281 379.089844 C 172.957031 381.378906 173.121094 383.679688 173.113281 385.992188 C 172.988281 395.117188 172.078125 404.164062 170.371094 413.128906 C 168.566406 422.054688 166.292969 430.855469 163.546875 439.535156 C 162.222656 443.871094 160.835938 448.183594 159.4375 452.496094 C 158.042969 456.804688 156.570312 461.078125 156.667969 465.460938 C 156.648438 469.894531 158.121094 474.109375 159.726562 478.3125 C 161.335938 482.511719 163.039062 486.722656 164.867188 490.84375 L 167.648438 497.039062 C 168.117188 498.074219 168.570312 499.121094 169 500.199219 C 169.488281 501.332031 169.804688 502.507812 169.949219 503.730469 C 170.011719 504.5625 169.773438 505.292969 169.230469 505.925781 C 168.617188 506.496094 167.894531 506.761719 167.058594 506.71875 C 165.839844 506.640625 164.652344 506.398438 163.5 505.996094 C 161.296875 505.269531 159.195312 504.535156 157.03125 503.679688 C 152.820312 501.847656 148.785156 499.691406 144.921875 497.207031 C 142.992188 496 141.078125 494.78125 139.152344 493.539062 C 137.226562 492.296875 135.355469 491.058594 133.503906 489.695312 C 132.546875 489.007812 131.640625 488.253906 130.789062 487.4375 C 129.847656 486.542969 129.179688 485.480469 128.789062 484.238281 C 128.445312 483.019531 128.359375 481.78125 128.535156 480.527344 C 128.6875 479.277344 129.074219 478.101562 129.6875 477.003906 C 130.007812 476.449219 130.390625 475.9375 130.835938 475.476562 L 131.007812 475.308594 C 131.085938 475.226562 131.175781 475.152344 131.269531 475.089844 C 131.421875 474.988281 131.578125 474.898438 131.738281 474.820312 C 132.035156 474.667969 132.308594 474.558594 132.582031 474.441406 C 133.691406 474.035156 134.753906 473.644531 135.824219 473.253906 C 136.890625 472.863281 137.972656 472.554688 138.96875 472.171875 L 142.140625 470.949219 C 143.203125 470.558594 144.386719 470.1875 145.394531 469.871094 C 145.847656 469.742188 146.265625 469.539062 146.648438 469.261719 C 146.976562 469.003906 147.214844 468.679688 147.355469 468.285156 C 147.535156 467.226562 147.65625 466.160156 147.722656 465.089844 C 147.894531 463.910156 148.175781 462.761719 148.566406 461.636719 C 148.964844 460.476562 149.511719 459.390625 150.207031 458.378906 C 150.402344 458.132812 150.582031 457.898438 150.820312 457.632812 C 151.050781 457.386719 151.304688 457.167969 151.578125 456.976562 C 152.066406 456.621094 152.574219 456.300781 153.105469 456.015625 C 155.136719 454.910156 157.085938 453.859375 159.183594 452.835938 C 159.71875 452.574219 160.269531 452.347656 160.835938 452.152344 C 161.523438 451.867188 162.234375 451.785156 162.964844 451.902344 C 163.777344 452.140625 164.382812 452.632812 164.773438 453.382812 C 165.097656 453.964844 165.324219 454.578125 165.453125 455.234375 C 165.660156 456.421875 165.730469 457.617188 165.660156 458.820312 C 165.644531 460.046875 165.441406 461.242188 165.050781 462.402344 C 164.644531 463.394531 164.394531 464.425781 164.296875 465.492188 C 164.183594 466.558594 164.210938 467.621094 164.371094 468.679688 C 164.574219 469.871094 164.605469 471.070312 164.46875 472.273438 C 164.402344 472.882812 164.289062 473.484375 164.128906 474.078125 C 163.953125 474.667969 163.726562 475.234375 163.449219 475.78125 C 163.257812 476.222656 163.128906 476.679688 163.070312 477.160156 C 162.992188 477.667969 162.957031 478.179688 162.964844 478.691406 C 163.011719 479.75 163.195312 480.785156 163.519531 481.792969 C 164.246094 483.902344 165.152344 485.929688 166.234375 487.882812 C 166.746094 488.898438 167.265625 489.859375 167.808594 490.847656 C 168.097656 491.378906 168.351562 491.925781 168.574219 492.484375 C 168.878906 493.214844 168.921875 493.960938 168.710938 494.71875 C 168.421875 495.484375 167.917969 496.054688 167.195312 496.433594 C 166.585938 496.765625 165.9375 496.960938 165.246094 497.027344 C 164.507812 497.105469 163.804688 496.988281 163.132812 496.675781 C 162.5 496.359375 161.96875 495.925781 161.539062 495.363281 C 160.8125 494.386719 160.222656 493.332031 159.769531 492.203125 C 159.308594 491.140625 158.898438 490.089844 158.472656 489.050781 C 157.65625 486.984375 156.675781 485 155.523438 483.101562 C 154.949219 482.171875 154.3125 481.285156 153.613281 480.445312 C 152.9375 479.625 152.160156 478.925781 151.277344 478.34375 C 149.480469 477.160156 147.40625 476.164062 145.417969 475.105469 C 141.386719 473.003906 137.40625 470.824219 133.46875 468.5625 C 131.503906 467.433594 129.535156 466.285156 127.601562 465.089844 C 125.667969 463.894531 123.753906 462.613281 121.839844 461.445312 C 119.925781 460.296875 117.949219 459.269531 115.910156 458.359375 C 113.875 457.394531 111.820312 456.492188 109.730469 455.671875 C 105.546875 454.027344 101.246094 452.769531 96.835938 451.894531 C 95.742188 451.683594 94.640625 451.476562 93.53125 451.332031 C 92.425781 451.1875 91.425781 450.996094 90.328125 450.921875 C 88.101562 450.75 85.863281 450.683594 83.625 450.71875 C 79.132812 450.734375 74.675781 451.113281 70.246094 451.855469 C 69.136719 452.042969 68.039062 452.238281 66.9375 452.492188 C 65.835938 452.746094 64.757812 453 63.6875 453.285156 C 61.523438 453.824219 59.433594 454.554688 57.40625 455.476562 C 55.417969 456.417969 53.5625 457.566406 51.832031 458.925781 C 50.050781 460.199219 48.515625 461.726562 47.234375 463.503906 C 46 465.296875 45.191406 467.261719 44.808594 469.40625 C 44.425781 471.566406 44.410156 473.726562 44.765625 475.890625 C 44.945312 477 45.179688 478.09375 45.472656 479.175781 C 45.734375 480.238281 46.070312 481.277344 46.472656 482.296875 C 46.84375 483.3125 47.398438 484.285156 47.882812 485.320312 C 48.367188 486.355469 48.816406 487.441406 49.214844 488.527344 C 49.988281 490.691406 50.632812 492.898438 51.148438 495.140625 C 51.691406 497.378906 52.078125 499.644531 52.3125 501.9375 C 52.492188 504.226562 52.554688 506.515625 52.5 508.808594 C 52.449219 511.09375 52.394531 513.363281 52.339844 515.625 L 52.125 522.414062 C 52.019531 524.648438 52.039062 526.878906 52.195312 529.109375 C 52.300781 530.148438 52.554688 531.148438 52.957031 532.113281 C 53.382812 533.109375 53.894531 534.0625 54.484375 534.972656 C 55.636719 536.8125 57.195312 538.199219 59.152344 539.140625 C 61.136719 540.027344 63.210938 540.324219 65.363281 540.027344 C 66.457031 539.902344 67.539062 539.722656 68.609375 539.484375 C 69.667969 539.230469 70.695312 538.882812 71.691406 538.445312 C 75.742188 536.539062 79.492188 534.15625 82.9375 531.296875 C 84.660156 529.90625 86.269531 528.308594 87.976562 526.796875 C 89.679688 525.289062 91.441406 523.839844 93.234375 522.429688 C 96.855469 519.65625 100.601562 517.070312 104.484375 514.679688 C 108.320312 512.265625 112.191406 509.8125 116.53125 508.117188 C 118.710938 507.277344 120.96875 506.746094 123.296875 506.523438 C 125.601562 506.265625 127.828125 506.070312 130.128906 505.847656 C 134.644531 505.433594 139.15625 505.011719 143.710938 504.804688 C 145.988281 504.714844 148.273438 504.667969 150.566406 504.765625 C 152.859375 504.863281 155.109375 505.085938 157.390625 505.347656 C 159.675781 505.609375 161.90625 505.941406 164.148438 506.289062 C 166.421875 506.621094 168.664062 507.101562 170.875 507.730469 C 171.964844 508.03125 173.078125 508.410156 174.101562 508.664062 C 174.308594 508.71875 174.515625 508.75 174.730469 508.761719 C 174.792969 508.738281 174.730469 508.761719 174.730469 508.761719 L 174.660156 508.789062 C 174.660156 508.789062 174.675781 508.828125 174.636719 508.839844 C 174.613281 508.707031 174.566406 508.578125 174.496094 508.460938 C 174.414062 508.242188 174.253906 508.015625 174.117188 507.792969 C 172.925781 505.945312 171.476562 503.960938 171.015625 501.5 C 170.796875 500.292969 170.785156 499.082031 170.980469 497.875 C 171.175781 496.726562 171.445312 495.59375 171.785156 494.480469 C 172.09375 493.394531 172.410156 492.320312 172.644531 491.242188 C 172.875 490.167969 173.019531 489.078125 173.078125 487.976562 C 173.40625 483.429688 173.808594 478.953125 173.851562 474.46875 C 173.894531 469.992188 173.320312 465.601562 172.128906 461.285156 C 170.878906 456.964844 169.253906 452.785156 167.25 448.757812 C 166.351562 446.667969 165.183594 444.734375 164.15625 442.726562 L 160.933594 436.773438 L 154.4375 424.816406 L 151.179688 418.839844 L 149.574219 415.886719 L 148.042969 412.84375 C 147.027344 410.816406 146.019531 408.785156 145.085938 406.699219 C 144.121094 404.601562 143.363281 402.429688 142.816406 400.183594 L 142.839844 400.253906 C 142.753906 400.011719 142.773438 399.949219 142.742188 399.8125 L 142.679688 399.453125 L 142.558594 398.738281 C 142.492188 398.265625 142.425781 397.785156 142.375 397.308594 C 142.261719 396.347656 142.195312 395.398438 142.144531 394.4375 C 142.054688 392.515625 142.09375 390.597656 142.261719 388.683594 C 142.421875 386.761719 142.714844 384.863281 143.140625 382.988281 C 143.363281 382.019531 143.59375 381.128906 143.890625 380.199219 C 144.195312 379.234375 144.632812 378.339844 145.207031 377.511719 C 145.804688 376.679688 146.523438 375.972656 147.367188 375.394531 C 148.210938 374.816406 149.128906 374.398438 150.121094 374.144531 C 152.007812 373.726562 153.921875 373.5 155.855469 373.460938 C 159.613281 373.167969 163.332031 372.625 167.015625 371.835938 C 170.703125 371.089844 174.21875 369.855469 177.5625 368.132812 C 180.824219 366.355469 183.765625 363.949219 186.796875 361.679688 C 188.304688 360.578125 189.71875 359.367188 191.042969 358.046875 C 192.308594 356.6875 193.289062 355.144531 193.988281 353.425781 C 194.191406 352.953125 194.4375 352.507812 194.730469 352.089844 C 195.054688 351.652344 195.453125 351.292969 195.921875 351.015625 C 196.824219 350.46875 197.800781 350.171875 198.855469 350.128906 C 200.871094 350.097656 202.789062 350.507812 204.617188 351.355469 C 206.453125 352.164062 208.011719 353.335938 209.296875 354.875 C 210.558594 356.359375 211.613281 357.976562 212.464844 359.726562 C 213.335938 361.488281 213.921875 363.339844 214.222656 365.28125 C 214.535156 367.175781 214.714844 369.039062 215.21875 370.828125 C 215.660156 372.640625 216.296875 374.378906 217.128906 376.042969 C 218.035156 377.675781 219.117188 379.183594 220.371094 380.570312 C 221.660156 382.023438 222.734375 383.621094 223.59375 385.363281 C 224.441406 387.125 225.078125 388.957031 225.511719 390.859375 C 226.296875 394.628906 226.410156 398.417969 225.847656 402.226562 C 225.65625 404.148438 225.320312 406.042969 224.839844 407.910156 C 224.328125 409.761719 223.675781 411.558594 222.882812 413.308594 C 221.277344 416.761719 219.464844 420.105469 217.445312 423.339844 C 215.492188 426.585938 213.480469 429.792969 211.46875 433.007812 C 209.460938 436.222656 207.40625 439.417969 205.210938 442.515625 C 203.019531 445.613281 200.671875 448.605469 198.289062 451.558594 C 193.507812 457.441406 188.566406 463.1875 183.464844 468.804688 C 180.929688 471.613281 178.554688 474.550781 176.339844 477.613281 C 175.230469 479.132812 174.140625 480.675781 173.148438 482.269531 C 172.652344 483.070312 172.179688 483.878906 171.757812 484.707031 C 171.316406 485.515625 170.992188 486.367188 170.777344 487.261719 C 170.617188 488.160156 170.5625 489.066406 170.613281 489.976562 C 170.660156 490.898438 170.816406 491.835938 170.824219 492.824219 C 170.835938 493.824219 170.675781 494.792969 170.339844 495.734375 C 170.007812 496.648438 169.59375 497.523438 169.097656 498.359375 C 168.613281 499.253906 167.964844 500.003906 167.152344 500.613281 C 166.660156 500.960938 166.117188 501.09375 165.523438 501.003906 C 164.949219 500.863281 164.503906 500.542969 164.1875 500.042969 C 163.667969 499.207031 163.257812 498.320312 162.957031 497.386719 L 161.980469 494.714844 C 160.789062 491.121094 159.09375 487.785156 156.890625 484.707031 C 156.335938 483.957031 155.738281 483.242188 155.097656 482.566406 C 154.433594 481.898438 153.730469 481.269531 152.992188 480.679688 C 151.535156 479.417969 150.234375 478.015625 149.085938 476.472656 C 146.742188 473.449219 144.785156 470.199219 143.21875 466.710938 C 142.4375 464.96875 141.761719 463.191406 141.144531 461.386719 C 140.53125 459.585938 139.925781 457.789062 139.445312 455.945312 C 138.4375 452.246094 137.886719 448.476562 137.792969 444.644531 C 137.773438 442.738281 137.851562 440.839844 138.027344 438.945312 C 138.257812 437.074219 138.316406 435.199219 138.207031 433.320312 C 138.015625 431.449219 137.523438 429.664062 136.734375 427.960938 C 135.96875 426.246094 134.96875 424.683594 133.730469 423.269531 C 132.472656 421.875 130.992188 420.773438 129.296875 419.964844 C 127.585938 419.183594 125.804688 418.621094 123.953125 418.28125 C 122.113281 417.890625 120.253906 417.679688 118.371094 417.640625 C 116.488281 417.601562 114.621094 417.738281 112.765625 418.054688 C 110.910156 418.367188 109.101562 418.851562 107.339844 419.507812 C 105.574219 420.164062 103.886719 420.976562 102.277344 421.949219 C 99.085938 423.976562 96.117188 426.289062 93.371094 428.886719 C 90.542969 431.433594 88.347656 434.445312 86.789062 437.917969 C 85.324219 441.421875 84.457031 445.0625 84.1875 448.851562 C 83.75 452.609375 83.71875 456.371094 84.089844 460.136719 C 84.917969 467.625 86.058594 475.195312 89.019531 482.140625 C 90.492188 485.625 92.371094 488.875 94.664062 491.882812 C 96.953125 494.894531 99.582031 497.574219 102.550781 499.921875 C 105.53125 502.265625 108.679688 504.359375 111.996094 506.199219 C 113.636719 507.132812 115.28125 508.0625 116.984375 508.855469 C 118.691406 509.644531 120.441406 510.339844 122.191406 510.976562 C 125.777344 512.171875 129.414062 513.171875 133.109375 513.980469 C 136.792969 514.828125 140.496094 515.585938 144.207031 516.34375 L 149.773438 517.46875 C 151.667969 517.808594 153.492188 518.167969 155.351562 518.347656 C 156.269531 518.457031 157.183594 518.449219 158.097656 518.324219 C 158.984375 518.15625 159.929688 517.855469 160.886719 517.746094 C 162.796875 517.542969 164.707031 517.496094 166.625 517.601562 L 169.464844 517.765625 C 170.382812 517.835938 171.292969 517.78125 172.191406 517.597656 C 173.082031 517.429688 173.851562 517.027344 174.496094 516.390625 C 175.128906 515.726562 175.492188 514.9375 175.59375 514.023438 C 175.65625 513.628906 175.566406 513.265625 175.332031 512.941406 C 175.042969 512.632812 174.6875 512.46875 174.265625 512.449219 C 173.34375 512.367188 172.429688 512.382812 171.511719 512.5 C 169.597656 512.6875 167.683594 512.679688 165.769531 512.484375 C 163.910156 512.171875 162.035156 511.972656 160.152344 511.886719 C 158.269531 511.847656 156.390625 511.90625 154.515625 512.066406 C 150.75 512.335938 147.035156 512.925781 143.371094 513.835938 C 141.523438 514.28125 139.667969 514.679688 137.804688 515.058594 C 135.9375 515.457031 134.050781 515.742188 132.144531 515.917969 C 130.214844 516.082031 128.292969 516.023438 126.378906 515.738281 C 125.417969 515.558594 124.484375 515.289062 123.574219 514.929688 C 122.683594 514.601562 121.804688 514.296875 120.90625 514.023438 C 119.113281 513.457031 117.292969 512.980469 115.4375 512.484375 C 113.582031 511.984375 111.777344 511.550781 109.9375 511.195312 C 109.015625 511.023438 108.089844 510.910156 107.15625 510.851562 C 106.230469 510.8125 105.3125 510.851562 104.394531 510.976562 C 102.546875 511.226562 100.769531 511.71875 99.054688 512.445312 C 97.332031 513.167969 95.714844 514.082031 94.203125 515.175781 C 92.617188 516.140625 91.25 517.351562 90.105469 518.8125 C 89.066406 520.335938 88.5 522.015625 88.414062 523.859375 C 88.359375 525.710938 88.628906 527.515625 89.226562 529.269531 C 91.390625 536.445312 97.296875 542.101562 104.269531 544.585938 C 107.824219 545.832031 111.480469 546.417969 115.246094 546.339844 C 119.003906 546.351562 122.699219 545.882812 126.335938 544.933594 C 129.949219 543.871094 133.445312 542.515625 136.824219 540.863281 C 138.535156 540.070312 140.238281 539.25 141.941406 538.421875 C 143.648438 537.59375 145.359375 536.800781 146.980469 535.878906 C 150.261719 534.039062 153.472656 532.023438 156.683594 530.03125 L 166.308594 523.992188 C 167.914062 523.027344 169.457031 521.972656 170.941406 520.828125 C 173.136719 519.097656 175.039062 517.089844 176.648438 514.804688 C 178.257812 512.519531 179.511719 510.050781 180.402344 507.402344 C 181.453125 503.796875 181.8125 500.125 181.476562 496.386719 C 181.332031 494.519531 181.078125 492.671875 180.71875 490.835938 C 180.359375 489 179.863281 487.203125 179.238281 485.4375 C 178.660156 483.613281 178.191406 481.75 177.773438 479.890625 C 177.335938 478.023438 176.992188 476.140625 176.75 474.238281 C 176.636719 473.269531 176.578125 472.296875 176.566406 471.320312 C 176.5625 470.367188 176.5625 469.421875 176.609375 468.4375 C 176.710938 466.445312 177.164062 464.53125 177.972656 462.707031 C 178.742188 460.878906 179.773438 459.214844 181.066406 457.714844 C 182.375 456.152344 183.953125 454.949219 185.808594 454.101562 C 186.757812 453.75 187.734375 453.527344 188.742188 453.433594 C 189.6875 453.308594 190.621094 453.195312 191.542969 453.054688 C 193.394531 452.773438 195.246094 452.433594 197.070312 451.996094 C 200.714844 451.058594 204.304688 449.941406 207.835938 448.636719 C 211.378906 447.339844 215.054688 446.257812 218.191406 444.394531 C 218.960938 443.9375 219.671875 443.398438 220.324219 442.78125 C 220.984375 442.160156 221.601562 441.425781 222.230469 440.726562 C 222.859375 440.027344 223.472656 439.289062 223.976562 438.582031 L 225.730469 436.285156 C 226.019531 435.894531 226.335938 435.523438 226.644531 435.164062 L 227.167969 434.609375 C 227.269531 434.519531 227.367188 434.421875 227.503906 434.316406 C 227.648438 434.203125 227.804688 434.117188 227.976562 434.054688 C 228.554688 433.832031 229.148438 433.773438 229.761719 433.878906 C 230.292969 433.972656 230.808594 434.128906 231.296875 434.351562 C 232.21875 434.773438 233.074219 435.304688 233.855469 435.949219 C 234.652344 436.566406 235.359375 437.277344 235.972656 438.078125 C 237.148438 439.6875 238.035156 441.445312 238.628906 443.351562 C 239.226562 445.257812 239.496094 447.207031 239.445312 449.199219 C 239.453125 450.246094 239.285156 451.257812 238.933594 452.242188 C 238.585938 453.226562 238.082031 454.121094 237.417969 454.929688 C 236.015625 456.304688 234.472656 457.503906 232.792969 458.523438 C 231.175781 459.566406 229.5 460.503906 227.765625 461.339844 C 226.085938 462.121094 224.492188 463.058594 222.984375 464.144531 C 221.527344 465.292969 220.167969 466.550781 218.902344 467.914062 C 217.628906 469.265625 216.273438 470.644531 215 472 C 209.769531 477.492188 205.785156 483.773438 203.042969 490.84375 C 202.351562 492.6875 201.425781 494.402344 200.261719 495.988281 C 199.054688 497.519531 197.714844 498.917969 196.238281 500.1875 C 193.371094 502.726562 190.324219 505.023438 187.09375 507.078125 C 185.53125 508.097656 184.066406 509.242188 182.699219 510.511719 C 181.28125 511.667969 180.035156 512.996094 178.96875 514.488281 C 178.503906 515.171875 178.289062 515.925781 178.320312 516.753906 C 178.34375 517.117188 178.464844 517.445312 178.679688 517.738281 C 178.925781 518.09375 179.203125 518.421875 179.511719 518.726562 C 180.804688 520.074219 182.148438 521.453125 183.429688 522.851562 C 184.710938 524.25 185.992188 525.664062 187.171875 527.199219 C 187.800781 527.980469 188.332031 528.820312 188.769531 529.722656 C 189.179688 530.617188 189.515625 531.539062 189.78125 532.484375 C 190.773438 536.121094 191.949219 539.699219 193.304688 543.21875 C 194.714844 546.757812 195.976562 550.339844 197.136719 553.953125 L 200.792969 565 L 202.519531 570.414062 C 203.089844 572.234375 203.671875 574.019531 204.136719 575.914062 C 204.25 576.394531 204.339844 576.882812 204.40625 577.375 L 204.589844 578.777344 C 204.726562 579.699219 204.886719 580.625 205.0625 581.542969 C 205.410156 583.378906 205.867188 585.191406 206.425781 586.976562 C 206.683594 587.835938 207.023438 588.664062 207.449219 589.460938 C 207.910156 590.199219 208.488281 590.835938 209.183594 591.367188 C 209.875 591.917969 210.628906 592.367188 211.445312 592.714844 C 212.257812 593.066406 213.101562 593.28125 213.984375 593.351562 C 214.851562 593.429688 215.703125 593.335938 216.539062 593.082031 C 217.394531 592.816406 218.199219 592.449219 218.957031 591.972656 C 220.511719 590.964844 221.957031 589.816406 223.292969 588.527344 C 228.722656 583.316406 234.027344 577.851562 239.578125 572.683594 C 242.359375 570.042969 245.300781 567.597656 248.402344 565.34375 C 251.558594 563.132812 254.9375 561.332031 258.535156 559.945312 C 262.117188 558.585938 265.789062 557.535156 269.546875 556.796875 C 273.285156 555.992188 277.058594 555.445312 280.871094 555.15625 C 284.648438 554.835938 288.433594 554.695312 291.996094 553.667969 C 293.785156 553.160156 295.492188 552.453125 297.117188 551.550781 C 298.761719 550.679688 300.304688 549.652344 301.742188 548.46875 C 304.648438 546.078125 307.023438 543.25 308.878906 539.976562 C 309.347656 539.191406 309.753906 538.375 310.09375 537.523438 C 310.167969 537.332031 310.226562 537.136719 310.269531 536.9375 C 310.289062 536.867188 310.296875 536.792969 310.296875 536.722656 C 310.332031 536.796875 310.382812 536.851562 310.453125 536.886719 C 310.628906 536.945312 310.582031 536.902344 310.53125 536.929688 C 310.449219 536.949219 310.367188 536.980469 310.289062 537.015625 C 310.101562 537.085938 309.917969 537.234375 309.714844 537.351562 C 308.863281 537.859375 307.96875 538.269531 307.027344 538.574219 C 306.128906 538.902344 305.226562 539.191406 304.324219 539.484375 C 297.09375 541.832031 289.757812 543.773438 282.3125 545.3125 L 271.25 547.859375 C 269.40625 548.285156 267.566406 548.730469 265.746094 549.21875 C 263.925781 549.710938 262.132812 550.285156 260.328125 550.839844 C 256.710938 551.917969 253.199219 553.265625 249.792969 554.882812 C 246.425781 556.570312 243.257812 558.574219 240.292969 560.902344 C 234.21875 565.476562 229.265625 571.054688 225.445312 577.628906 C 221.71875 584.183594 219.941406 591.613281 218.710938 599.058594 C 218.089844 602.78125 217.585938 606.554688 217.066406 610.285156 C 216.546875 614.015625 216.050781 617.785156 215.601562 621.542969 C 214.605469 629.042969 214.1875 636.574219 214.347656 644.136719 C 214.519531 651.734375 215.761719 659.15625 218.074219 666.402344 C 218.628906 668.207031 219.304688 669.976562 219.910156 671.777344 C 220.515625 673.574219 221.089844 675.382812 221.625 677.203125 C 222.6875 680.875 223.519531 684.597656 224.121094 688.375 C 224.703125 692.128906 225.046875 695.90625 225.144531 699.703125 C 225.230469 703.496094 225.105469 707.289062 224.875 711.054688 C 224.351562 718.636719 223.171875 726.117188 221.339844 733.492188 Z M 221.132812 733.433594 " fill-opacity="1" fill-rule="nonzero"/></g></g></g><g fill="#ffffff" fill-opacity="1"><g transform="translate(56.483472, 272.352521)"><g><path d="M 52.546875 -66.75 C 52.546875 -66.75 52.242188 -67.238281 51.640625 -68.21875 C 51.035156 -69.207031 49.90625 -70.320312 48.25 -71.5625 C 46.59375 -72.800781 44.269531 -73.914062 41.28125 -74.90625 C 38.300781 -75.894531 34.425781 -76.390625 29.65625 -76.390625 L 18.015625 -76.390625 L 18.015625 -13.34375 C 18.015625 -11.125 18.140625 -9.234375 18.390625 -7.671875 C 18.648438 -6.117188 18.972656 -4.832031 19.359375 -3.8125 L 42.53125 -3.8125 C 51.425781 -3.8125 58.878906 -4.300781 64.890625 -5.28125 C 70.898438 -6.269531 75.734375 -7.476562 79.390625 -8.90625 C 83.046875 -10.34375 85.8125 -11.757812 87.6875 -13.15625 C 89.5625 -14.550781 90.816406 -15.742188 91.453125 -16.734375 C 92.085938 -17.722656 92.40625 -18.21875 92.40625 -18.21875 L 88.5 -0.09375 L 2.390625 -0.09375 C 2.390625 -0.09375 2.722656 -0.410156 3.390625 -1.046875 C 4.054688 -1.679688 4.722656 -2.953125 5.390625 -4.859375 C 6.054688 -6.765625 6.390625 -9.59375 6.390625 -13.34375 L 6.390625 -124.0625 C 6.390625 -127.875 6.054688 -130.671875 5.390625 -132.453125 C 4.722656 -134.234375 4.054688 -135.394531 3.390625 -135.9375 C 2.722656 -136.476562 2.390625 -136.75 2.390625 -136.75 L 88.5 -136.75 L 92.40625 -118.53125 C 92.40625 -118.53125 92.085938 -119.019531 91.453125 -120 C 90.816406 -120.988281 89.5625 -122.195312 87.6875 -123.625 C 85.8125 -125.0625 83.046875 -126.476562 79.390625 -127.875 C 75.734375 -129.269531 70.898438 -130.460938 64.890625 -131.453125 C 58.878906 -132.441406 51.425781 -132.9375 42.53125 -132.9375 L 19.171875 -132.9375 C 18.847656 -132.039062 18.570312 -130.859375 18.34375 -129.390625 C 18.125 -127.929688 18.015625 -126.1875 18.015625 -124.15625 L 18.015625 -79.625 L 29.65625 -79.625 C 34.425781 -79.625 38.300781 -80.113281 41.28125 -81.09375 C 44.269531 -82.082031 46.59375 -83.195312 48.25 -84.4375 C 49.90625 -85.675781 51.035156 -86.785156 51.640625 -87.765625 C 52.242188 -88.753906 52.546875 -89.25 52.546875 -89.25 Z M 52.546875 -66.75 "/></g></g></g><g fill="#ffffff" fill-opacity="1"><g transform="translate(172.219296, 272.352521)"><g><path d="M 91.0625 -37 C 91.0625 -41.445312 90.140625 -45.210938 88.296875 -48.296875 C 86.453125 -51.378906 83.941406 -54 80.765625 -56.15625 C 77.585938 -58.320312 73.960938 -60.179688 69.890625 -61.734375 C 65.828125 -63.296875 61.519531 -64.742188 56.96875 -66.078125 C 52.425781 -67.421875 47.878906 -68.804688 43.328125 -70.234375 C 38.785156 -71.660156 34.476562 -73.328125 30.40625 -75.234375 C 26.34375 -77.140625 22.722656 -79.457031 19.546875 -82.1875 C 16.367188 -84.925781 13.859375 -88.25 12.015625 -92.15625 C 10.171875 -96.070312 9.25 -100.765625 9.25 -106.234375 C 9.25 -107.117188 9.453125 -108.46875 9.859375 -110.28125 C 10.273438 -112.09375 11.023438 -114.140625 12.109375 -116.421875 C 13.191406 -118.710938 14.75 -121.050781 16.78125 -123.4375 C 18.8125 -125.820312 21.429688 -128 24.640625 -129.96875 C 27.859375 -131.945312 31.800781 -133.554688 36.46875 -134.796875 C 41.144531 -136.035156 46.660156 -136.65625 53.015625 -136.65625 C 58.992188 -136.65625 64.554688 -136.160156 69.703125 -135.171875 C 74.859375 -134.179688 79.359375 -133.019531 83.203125 -131.6875 C 87.046875 -130.351562 90.046875 -129.191406 92.203125 -128.203125 C 94.367188 -127.222656 95.453125 -126.734375 95.453125 -126.734375 L 91.640625 -105.75 C 91.640625 -105.75 91.445312 -106.398438 91.0625 -107.703125 C 90.6875 -109.003906 89.988281 -110.703125 88.96875 -112.796875 C 87.945312 -114.898438 86.5 -117.113281 84.625 -119.4375 C 82.75 -121.757812 80.332031 -123.96875 77.375 -126.0625 C 74.425781 -128.164062 70.835938 -129.867188 66.609375 -131.171875 C 62.378906 -132.472656 57.375 -133.125 51.59375 -133.125 C 48.28125 -133.125 44.859375 -132.660156 41.328125 -131.734375 C 37.804688 -130.816406 34.535156 -129.335938 31.515625 -127.296875 C 28.492188 -125.265625 26.046875 -122.53125 24.171875 -119.09375 C 22.296875 -115.664062 21.359375 -111.410156 21.359375 -106.328125 C 21.359375 -102.066406 22.3125 -98.441406 24.21875 -95.453125 C 26.125 -92.460938 28.726562 -89.914062 32.03125 -87.8125 C 35.34375 -85.71875 39.113281 -83.890625 43.34375 -82.328125 C 47.570312 -80.773438 52.050781 -79.347656 56.78125 -78.046875 C 61.519531 -76.742188 66.238281 -75.359375 70.9375 -73.890625 C 75.644531 -72.429688 80.113281 -70.765625 84.34375 -68.890625 C 88.570312 -67.015625 92.335938 -64.726562 95.640625 -62.03125 C 98.953125 -59.332031 101.5625 -56.070312 103.46875 -52.25 C 105.375 -48.4375 106.328125 -43.894531 106.328125 -38.625 C 106.328125 -29.40625 104.117188 -21.960938 99.703125 -16.296875 C 95.285156 -10.640625 89.035156 -6.507812 80.953125 -3.90625 C 72.878906 -1.300781 63.28125 0 52.15625 0 C 45.488281 0 39.578125 -0.601562 34.421875 -1.8125 C 29.273438 -3.019531 24.828125 -4.578125 21.078125 -6.484375 C 17.328125 -8.390625 14.160156 -10.40625 11.578125 -12.53125 C 9.003906 -14.664062 6.972656 -16.65625 5.484375 -18.5 C 3.992188 -20.34375 2.960938 -21.804688 2.390625 -22.890625 L 10.484375 -36.046875 C 10.804688 -34.835938 11.554688 -32.960938 12.734375 -30.421875 C 13.910156 -27.878906 15.5625 -25.066406 17.6875 -21.984375 C 19.820312 -18.898438 22.492188 -15.941406 25.703125 -13.109375 C 28.910156 -10.285156 32.722656 -7.953125 37.140625 -6.109375 C 41.554688 -4.265625 46.59375 -3.34375 52.25 -3.34375 C 61.09375 -3.34375 68.375 -4.722656 74.09375 -7.484375 C 79.8125 -10.253906 84.066406 -14.164062 86.859375 -19.21875 C 89.660156 -24.269531 91.0625 -30.195312 91.0625 -37 Z M 91.0625 -37 "/></g></g></g><g fill="#ffffff" fill-opacity="1"><g transform="translate(301.873419, 272.352521)"><g><path d="M 58.9375 -136.65625 C 65.164062 -136.65625 71.078125 -135.71875 76.671875 -133.84375 C 82.265625 -131.96875 87.207031 -129.265625 91.5 -125.734375 C 95.789062 -122.203125 99.175781 -117.941406 101.65625 -112.953125 C 104.132812 -107.960938 105.375 -102.351562 105.375 -96.125 C 105.375 -86.90625 103.59375 -79.082031 100.03125 -72.65625 C 96.46875 -66.238281 90.789062 -61.359375 83 -58.015625 C 75.21875 -54.679688 64.90625 -53.015625 52.0625 -53.015625 L 18.015625 -53.015625 L 18.015625 -12.6875 C 18.015625 -8.9375 18.347656 -6.15625 19.015625 -4.34375 C 19.691406 -2.53125 20.347656 -1.367188 20.984375 -0.859375 C 21.617188 -0.347656 21.9375 -0.09375 21.9375 -0.09375 L 2.390625 -0.09375 C 2.390625 -0.09375 2.722656 -0.363281 3.390625 -0.90625 C 4.054688 -1.445312 4.722656 -2.625 5.390625 -4.4375 C 6.054688 -6.25 6.390625 -9.03125 6.390625 -12.78125 L 6.390625 -123.390625 C 6.390625 -127.203125 6.054688 -130.046875 5.390625 -131.921875 C 4.722656 -133.804688 4.054688 -135.066406 3.390625 -135.703125 C 2.722656 -136.335938 2.390625 -136.65625 2.390625 -136.65625 C 2.390625 -136.65625 3.359375 -136.65625 5.296875 -136.65625 C 7.234375 -136.65625 9.820312 -136.65625 13.0625 -136.65625 C 16.300781 -136.65625 19.859375 -136.65625 23.734375 -136.65625 C 27.617188 -136.65625 31.546875 -136.65625 35.515625 -136.65625 C 39.492188 -136.65625 43.179688 -136.65625 46.578125 -136.65625 C 49.984375 -136.65625 52.796875 -136.65625 55.015625 -136.65625 C 57.242188 -136.65625 58.550781 -136.65625 58.9375 -136.65625 Z M 46.25 -56.453125 C 52.863281 -56.453125 59.03125 -56.972656 64.75 -58.015625 C 70.46875 -59.066406 75.457031 -60.988281 79.71875 -63.78125 C 83.976562 -66.582031 87.300781 -70.554688 89.6875 -75.703125 C 92.070312 -80.859375 93.265625 -87.570312 93.265625 -95.84375 C 93.265625 -102.445312 92.054688 -108.082031 89.640625 -112.75 C 87.222656 -117.425781 84.007812 -121.210938 80 -124.109375 C 76 -127.003906 71.566406 -129.117188 66.703125 -130.453125 C 61.835938 -131.785156 56.957031 -132.453125 52.0625 -132.453125 L 19.171875 -132.453125 C 18.847656 -131.503906 18.570312 -130.28125 18.34375 -128.78125 C 18.125 -127.289062 18.015625 -125.492188 18.015625 -123.390625 L 18.015625 -56.453125 Z M 46.25 -56.453125 "/></g></g></g><g fill="#ffffff" fill-opacity="1"><g transform="translate(430.574198, 272.352521)"><g><path d="M 97.75 -0.09375 C 97.75 -0.09375 97.890625 -0.25 98.171875 -0.5625 C 98.453125 -0.882812 98.671875 -1.503906 98.828125 -2.421875 C 98.992188 -3.347656 98.929688 -4.6875 98.640625 -6.4375 C 98.359375 -8.1875 97.644531 -10.488281 96.5 -13.34375 L 85.625 -41.1875 L 24.703125 -41.1875 L 13.734375 -13.34375 C 12.648438 -10.488281 11.960938 -8.1875 11.671875 -6.4375 C 11.390625 -4.6875 11.328125 -3.347656 11.484375 -2.421875 C 11.648438 -1.503906 11.859375 -0.882812 12.109375 -0.5625 C 12.359375 -0.25 12.484375 -0.09375 12.484375 -0.09375 L 2.390625 -0.09375 C 2.390625 -0.09375 2.847656 -0.410156 3.765625 -1.046875 C 4.691406 -1.679688 5.851562 -2.953125 7.25 -4.859375 C 8.644531 -6.765625 10.070312 -9.59375 11.53125 -13.34375 L 59.890625 -136.65625 L 108.140625 -13.34375 C 109.660156 -9.59375 111.117188 -6.765625 112.515625 -4.859375 C 113.921875 -2.953125 115.066406 -1.679688 115.953125 -1.046875 C 116.847656 -0.410156 117.296875 -0.09375 117.296875 -0.09375 Z M 25.5625 -43.484375 L 84.78125 -43.484375 L 55.125 -119.109375 Z M 25.5625 -43.484375 "/></g></g></g><g fill="#ffffff" fill-opacity="1"><g transform="translate(571.191313, 272.352521)"><g><path d="M 112.90625 -21.171875 C 107.375 -13.859375 100.363281 -8.515625 91.875 -5.140625 C 83.382812 -1.773438 73.613281 -0.09375 62.5625 -0.09375 C 54.289062 -0.09375 46.515625 -1.601562 39.234375 -4.625 C 31.960938 -7.644531 25.5625 -12.078125 20.03125 -17.921875 C 14.5 -23.773438 10.175781 -30.925781 7.0625 -39.375 C 3.945312 -47.832031 2.390625 -57.46875 2.390625 -68.28125 C 2.390625 -79.144531 3.960938 -88.804688 7.109375 -97.265625 C 10.253906 -105.722656 14.6875 -112.890625 20.40625 -118.765625 C 26.125 -124.648438 32.894531 -129.117188 40.71875 -132.171875 C 48.539062 -135.222656 57.15625 -136.75 66.5625 -136.75 C 73.175781 -136.75 78.800781 -136.222656 83.4375 -135.171875 C 88.082031 -134.117188 91.992188 -132.863281 95.171875 -131.40625 C 98.347656 -129.945312 101.0625 -128.546875 103.3125 -127.203125 C 105.570312 -125.867188 107.65625 -124.851562 109.5625 -124.15625 C 111.46875 -123.457031 113.503906 -123.394531 115.671875 -123.96875 L 109.1875 -106.421875 C 106.070312 -111.503906 103.019531 -115.742188 100.03125 -119.140625 C 97.039062 -122.546875 93.8125 -125.265625 90.34375 -127.296875 C 86.882812 -129.335938 82.910156 -130.800781 78.421875 -131.6875 C 73.941406 -132.582031 68.65625 -133.03125 62.5625 -133.03125 C 58.550781 -133.03125 54.335938 -132.203125 49.921875 -130.546875 C 45.503906 -128.890625 41.195312 -126.375 37 -123 C 32.800781 -119.632812 29 -115.378906 25.59375 -110.234375 C 22.195312 -105.085938 19.5 -99.046875 17.5 -92.109375 C 15.5 -85.179688 14.5 -77.332031 14.5 -68.5625 C 14.5 -57.5625 15.738281 -48.023438 18.21875 -39.953125 C 20.695312 -31.878906 24.144531 -25.21875 28.5625 -19.96875 C 32.976562 -14.726562 38.09375 -10.835938 43.90625 -8.296875 C 49.726562 -5.753906 55.945312 -4.484375 62.5625 -4.484375 C 70.375 -4.484375 76.882812 -5.257812 82.09375 -6.8125 C 87.3125 -8.375 91.734375 -10.757812 95.359375 -13.96875 C 98.984375 -17.175781 102.257812 -21.289062 105.1875 -26.3125 Z M 112.90625 -21.171875 "/></g></g></g><g fill="#ffffff" fill-opacity="1"><g transform="translate(710.187818, 272.352521)"><g><path d="M 52.546875 -66.75 C 52.546875 -66.75 52.242188 -67.238281 51.640625 -68.21875 C 51.035156 -69.207031 49.90625 -70.320312 48.25 -71.5625 C 46.59375 -72.800781 44.269531 -73.914062 41.28125 -74.90625 C 38.300781 -75.894531 34.425781 -76.390625 29.65625 -76.390625 L 18.015625 -76.390625 L 18.015625 -13.34375 C 18.015625 -11.125 18.140625 -9.234375 18.390625 -7.671875 C 18.648438 -6.117188 18.972656 -4.832031 19.359375 -3.8125 L 42.53125 -3.8125 C 51.425781 -3.8125 58.878906 -4.300781 64.890625 -5.28125 C 70.898438 -6.269531 75.734375 -7.476562 79.390625 -8.90625 C 83.046875 -10.34375 85.8125 -11.757812 87.6875 -13.15625 C 89.5625 -14.550781 90.816406 -15.742188 91.453125 -16.734375 C 92.085938 -17.722656 92.40625 -18.21875 92.40625 -18.21875 L 88.5 -0.09375 L 2.390625 -0.09375 C 2.390625 -0.09375 2.722656 -0.410156 3.390625 -1.046875 C 4.054688 -1.679688 4.722656 -2.953125 5.390625 -4.859375 C 6.054688 -6.765625 6.390625 -9.59375 6.390625 -13.34375 L 6.390625 -124.0625 C 6.390625 -127.875 6.054688 -130.671875 5.390625 -132.453125 C 4.722656 -134.234375 4.054688 -135.394531 3.390625 -135.9375 C 2.722656 -136.476562 2.390625 -136.75 2.390625 -136.75 L 88.5 -136.75 L 92.40625 -118.53125 C 92.40625 -118.53125 92.085938 -119.019531 91.453125 -120 C 90.816406 -120.988281 89.5625 -122.195312 87.6875 -123.625 C 85.8125 -125.0625 83.046875 -126.476562 79.390625 -127.875 C 75.734375 -129.269531 70.898438 -130.460938 64.890625 -131.453125 C 58.878906 -132.441406 51.425781 -132.9375 42.53125 -132.9375 L 19.171875 -132.9375 C 18.847656 -132.039062 18.570312 -130.859375 18.34375 -129.390625 C 18.125 -127.929688 18.015625 -126.1875 18.015625 -124.15625 L 18.015625 -79.625 L 29.65625 -79.625 C 34.425781 -79.625 38.300781 -80.113281 41.28125 -81.09375 C 44.269531 -82.082031 46.59375 -83.195312 48.25 -84.4375 C 49.90625 -85.675781 51.035156 -86.785156 51.640625 -87.765625 C 52.242188 -88.753906 52.546875 -89.25 52.546875 -89.25 Z M 52.546875 -66.75 "/></g></g></g><g fill="#ffffff" fill-opacity="1"><g transform="translate(344.037938, 597.443922)"><g><path d="M 49.484375 -2.0625 C 51.941406 -2.0625 54.421875 -2.132812 56.921875 -2.28125 C 59.421875 -2.425781 62 -2.695312 64.65625 -3.09375 C 80.257812 -5.445312 93.070312 -9.914062 103.09375 -16.5 C 113.207031 -22.976562 120.863281 -29.648438 126.0625 -36.515625 C 140.59375 -54.878906 146.78125 -72.75 144.625 -90.125 C 142.757812 -99.84375 138.976562 -107.40625 133.28125 -112.8125 C 127.582031 -118.207031 121.101562 -122.132812 113.84375 -124.59375 C 110.207031 -125.863281 106.546875 -126.988281 102.859375 -127.96875 C 99.179688 -128.957031 95.523438 -129.796875 91.890625 -130.484375 C 82.566406 -132.242188 74.957031 -134.597656 69.0625 -137.546875 C 63.175781 -140.492188 60.476562 -145.597656 60.96875 -152.859375 C 61.65625 -159.441406 65.238281 -165.484375 71.71875 -170.984375 C 81.34375 -178.640625 92.09375 -182.023438 103.96875 -181.140625 C 113.394531 -180.160156 118.5 -176.921875 119.28125 -171.421875 C 119.476562 -165.628906 115.359375 -159.347656 106.921875 -152.578125 C 106.234375 -151.890625 105.835938 -151.25 105.734375 -150.65625 C 105.546875 -149.875 105.644531 -149.285156 106.03125 -148.890625 C 106.519531 -148.398438 107.0625 -148.15625 107.65625 -148.15625 C 108.238281 -148.15625 108.925781 -148.398438 109.71875 -148.890625 C 120.125 -157.234375 125.082031 -165.332031 124.59375 -173.1875 C 123.707031 -180.644531 117.472656 -185.015625 105.890625 -186.296875 C 92.140625 -187.378906 79.816406 -183.453125 68.921875 -174.515625 C 61.066406 -167.742188 56.597656 -160.234375 55.515625 -151.984375 C 55.128906 -143.046875 58.273438 -136.8125 64.953125 -133.28125 C 68.378906 -131.507812 72.101562 -129.960938 76.125 -128.640625 C 80.15625 -127.316406 84.578125 -126.257812 89.390625 -125.46875 C 93.023438 -124.78125 96.632812 -123.945312 100.21875 -122.96875 C 103.800781 -121.988281 107.3125 -120.910156 110.75 -119.734375 C 114.1875 -118.554688 117.445312 -117.082031 120.53125 -115.3125 C 123.625 -113.539062 126.453125 -111.429688 129.015625 -108.984375 C 134.117188 -104.171875 137.503906 -97.195312 139.171875 -88.0625 C 141.128906 -72.257812 135.484375 -55.914062 122.234375 -39.03125 C 119.773438 -35.882812 116.78125 -32.789062 113.25 -29.75 C 109.71875 -26.707031 105.644531 -23.664062 101.03125 -20.625 C 91.800781 -14.632812 79.867188 -10.507812 65.234375 -8.25 C 32.742188 -4.613281 13.75 -12.859375 8.25 -32.984375 C 6.476562 -41.722656 7.554688 -50.707031 11.484375 -59.9375 C 15.210938 -68.96875 21.203125 -76.875 29.453125 -83.65625 C 46.628906 -96.414062 64.988281 -97.441406 84.53125 -86.734375 C 85.125 -86.441406 85.8125 -86.441406 86.59375 -86.734375 C 87.28125 -86.835938 87.867188 -87.234375 88.359375 -87.921875 C 88.847656 -88.703125 89.09375 -89.390625 89.09375 -89.984375 C 89 -90.671875 88.707031 -91.160156 88.21875 -91.453125 C 66.519531 -103.234375 46.046875 -101.859375 26.796875 -87.328125 C 17.566406 -79.867188 10.84375 -71.035156 6.625 -60.828125 C 2.207031 -50.421875 0.984375 -40.40625 2.953125 -30.78125 C 7.859375 -11.925781 23.367188 -2.351562 49.484375 -2.0625 Z M 49.484375 -2.0625 "/></g></g></g><g fill="#ffffff" fill-opacity="1"><g transform="translate(508.683441, 597.443922)"><g><path d="M 11.640625 -83.9375 C 13.015625 -83.9375 14.191406 -83.59375 15.171875 -82.90625 C 15.660156 -82.519531 16.175781 -82.128906 16.71875 -81.734375 C 17.257812 -81.335938 17.722656 -80.945312 18.109375 -80.5625 C 15.660156 -76.726562 13.207031 -73.289062 10.75 -70.25 C 8.289062 -67.007812 6.179688 -65.390625 4.421875 -65.390625 C 3.441406 -65.390625 2.800781 -65.832031 2.5 -66.71875 C 2.113281 -67.5 1.921875 -68.332031 1.921875 -69.21875 C 1.921875 -71.570312 2.601562 -74.222656 3.96875 -77.171875 C 5.25 -79.921875 6.921875 -81.929688 8.984375 -83.203125 C 9.960938 -83.691406 10.847656 -83.9375 11.640625 -83.9375 Z M 27.546875 -87.765625 C 27.347656 -88.453125 27.003906 -88.847656 26.515625 -88.953125 C 25.828125 -89.242188 25.140625 -89.242188 24.453125 -88.953125 C 23.660156 -88.660156 23.066406 -88.171875 22.671875 -87.484375 C 22.484375 -87.179688 22.265625 -86.882812 22.015625 -86.59375 C 21.773438 -86.300781 21.554688 -85.957031 21.359375 -85.5625 C 18.609375 -87.914062 16.054688 -89.09375 13.703125 -89.09375 C 11.140625 -89.09375 9.078125 -88.601562 7.515625 -87.625 C 3.972656 -85.664062 1.269531 -82.769531 -0.59375 -78.9375 C -2.550781 -74.8125 -3.484375 -71.128906 -3.390625 -67.890625 C -3.097656 -62.691406 -0.9375 -60.09375 3.09375 -60.09375 C 5.550781 -60.09375 8.003906 -61.171875 10.453125 -63.328125 C 13.003906 -65.585938 15.410156 -68.335938 17.671875 -71.578125 C 17.960938 -72.066406 18.253906 -72.53125 18.546875 -72.96875 C 18.847656 -73.414062 19.195312 -73.832031 19.59375 -74.21875 C 19.289062 -71.375 19.828125 -68.675781 21.203125 -66.125 C 22.578125 -63.46875 25.671875 -61.703125 30.484375 -60.828125 C 31.953125 -60.523438 33.472656 -60.375 35.046875 -60.375 C 46.046875 -60.375 59.988281 -66.070312 76.875 -77.46875 C 77.5625 -77.851562 78.050781 -78.441406 78.34375 -79.234375 C 78.539062 -80.015625 78.492188 -80.648438 78.203125 -81.140625 C 77.804688 -81.734375 77.316406 -82.078125 76.734375 -82.171875 C 75.941406 -82.171875 75.203125 -81.976562 74.515625 -81.59375 C 56.742188 -69.613281 42.800781 -64.410156 32.6875 -65.984375 C 28.070312 -66.671875 25.519531 -68.679688 25.03125 -72.015625 C 24.539062 -75.160156 25.128906 -79.1875 26.796875 -84.09375 C 27.390625 -86.050781 27.640625 -87.273438 27.546875 -87.765625 Z M 27.546875 -87.765625 "/></g></g></g><g fill="#ffffff" fill-opacity="1"><g transform="translate(582.75921, 597.443922)"><g><path d="M 27.546875 -171.28125 C 27.734375 -172.0625 27.679688 -172.648438 27.390625 -173.046875 C 26.898438 -173.535156 26.3125 -173.78125 25.625 -173.78125 C 25.03125 -173.78125 24.390625 -173.535156 23.703125 -173.046875 C 23.015625 -172.648438 22.578125 -172.0625 22.390625 -171.28125 C 20.222656 -163.03125 18.160156 -155.367188 16.203125 -148.296875 L -22.390625 -148.296875 C -23.078125 -148.296875 -23.765625 -148.050781 -24.453125 -147.5625 C -24.941406 -147.164062 -25.378906 -146.53125 -25.765625 -145.65625 C -25.867188 -144.96875 -25.722656 -144.378906 -25.328125 -143.890625 C -25.035156 -143.296875 -24.546875 -143 -23.859375 -143 L 14.734375 -143 C 11.390625 -131.113281 8.613281 -120.726562 6.40625 -111.84375 C 4.195312 -102.96875 2.503906 -95.582031 1.328125 -89.6875 C -1.023438 -77.507812 -0.632812 -69.359375 2.5 -65.234375 C 4.757812 -61.992188 9.03125 -60.375 15.3125 -60.375 C 20.21875 -60.375 25.175781 -61.359375 30.1875 -63.328125 C 32.644531 -64.304688 35 -65.382812 37.25 -66.5625 C 39.507812 -67.738281 41.722656 -68.96875 43.890625 -70.25 C 46.046875 -71.625 48.003906 -72.898438 49.765625 -74.078125 C 51.535156 -75.253906 53.207031 -76.382812 54.78125 -77.46875 C 54.882812 -77.5625 54.984375 -77.609375 55.078125 -77.609375 C 55.566406 -78.003906 56.007812 -78.347656 56.40625 -78.640625 C 56.800781 -78.929688 57.191406 -79.226562 57.578125 -79.53125 C 58.265625 -79.914062 58.757812 -80.503906 59.0625 -81.296875 C 59.25 -82.078125 59.195312 -82.710938 58.90625 -83.203125 C 58.613281 -83.691406 58.125 -83.988281 57.4375 -84.09375 C 56.945312 -84.1875 56.257812 -83.988281 55.375 -83.5 C 54.976562 -83.207031 54.535156 -82.890625 54.046875 -82.546875 C 53.554688 -82.203125 53.066406 -81.832031 52.578125 -81.4375 L 52.421875 -81.4375 C 50.859375 -80.363281 49.238281 -79.257812 47.5625 -78.125 C 45.894531 -77 44.082031 -75.847656 42.125 -74.671875 C 40.257812 -73.390625 38.296875 -72.234375 36.234375 -71.203125 C 34.171875 -70.171875 32.054688 -69.210938 29.890625 -68.328125 C 25.472656 -66.566406 21.054688 -65.6875 16.640625 -65.6875 C 11.828125 -65.6875 8.6875 -66.765625 7.21875 -68.921875 C 4.664062 -72.554688 4.613281 -80.460938 7.0625 -92.640625 C 9.613281 -104.421875 13.882812 -121.207031 19.875 -143 L 93.375 -143 C 94.15625 -143 94.890625 -143.296875 95.578125 -143.890625 C 96.265625 -144.378906 96.65625 -144.96875 96.75 -145.65625 C 96.945312 -146.53125 96.851562 -147.164062 96.46875 -147.5625 C 95.96875 -148.050781 95.425781 -148.296875 94.84375 -148.296875 L 21.359375 -148.296875 C 23.316406 -155.367188 25.378906 -163.03125 27.546875 -171.28125 Z M 27.546875 -171.28125 "/></g></g></g><g fill="#ffffff" fill-opacity="1"><g transform="translate(636.659259, 597.443922)"><g><path d="M 33.4375 -46.09375 C 31.175781 -37.0625 28.816406 -28.546875 26.359375 -20.546875 C 23.898438 -12.546875 21.394531 -5.054688 18.84375 1.921875 C 16.289062 8.890625 13.515625 14.828125 10.515625 19.734375 C 7.523438 24.640625 4.363281 28.519531 1.03125 31.375 C -2.007812 33.820312 -5.300781 35.046875 -8.84375 35.046875 C -11.195312 35.046875 -12.816406 34.3125 -13.703125 32.84375 C -14.191406 32.15625 -14.554688 31.394531 -14.796875 30.5625 C -15.046875 29.726562 -15.21875 28.816406 -15.3125 27.828125 C -15.414062 25.960938 -15.414062 24.242188 -15.3125 22.671875 C -14.238281 14.429688 -9.675781 3.976562 -1.625 -8.6875 C 6.425781 -21.15625 18.113281 -33.625 33.4375 -46.09375 Z M 46.984375 -88.796875 C 45.703125 -88.992188 44.71875 -88.648438 44.03125 -87.765625 C 35.289062 -77.859375 27.632812 -71.578125 21.0625 -68.921875 C 14.382812 -66.273438 10.113281 -65.296875 8.25 -65.984375 C 7.757812 -65.984375 7.171875 -66.175781 6.484375 -66.5625 C 5.597656 -67.050781 4.957031 -67.9375 4.5625 -69.21875 C 4.363281 -69.90625 4.238281 -70.738281 4.1875 -71.71875 C 4.144531 -72.695312 4.222656 -73.875 4.421875 -75.25 C 4.617188 -76.625 4.9375 -78.21875 5.375 -80.03125 C 5.8125 -81.851562 6.425781 -83.941406 7.21875 -86.296875 C 7.414062 -87.179688 7.363281 -87.867188 7.0625 -88.359375 C 6.769531 -88.847656 6.28125 -89.09375 5.59375 -89.09375 C 4.8125 -89.289062 4.125 -89.144531 3.53125 -88.65625 C 2.945312 -88.257812 2.457031 -87.617188 2.0625 -86.734375 C -3.4375 -70.835938 -2.113281 -62.203125 6.03125 -60.828125 C 6.332031 -60.722656 7.019531 -60.671875 8.09375 -60.671875 C 10.550781 -60.671875 13.742188 -61.3125 17.671875 -62.59375 C 19.734375 -63.28125 21.941406 -64.210938 24.296875 -65.390625 C 26.648438 -66.566406 29.101562 -68.039062 31.65625 -69.8125 C 33.332031 -70.988281 35.03125 -72.3125 36.75 -73.78125 C 38.46875 -75.25 40.207031 -76.867188 41.96875 -78.640625 C 41.28125 -76.179688 40.617188 -73.703125 39.984375 -71.203125 C 39.347656 -68.703125 38.6875 -66.175781 38 -63.625 C 37.601562 -61.945312 37.179688 -60.273438 36.734375 -58.609375 C 36.296875 -56.941406 35.878906 -55.273438 35.484375 -53.609375 C 17.816406 -40.253906 4.320312 -26.507812 -5 -12.375 C -14.425781 2.0625 -19.632812 13.992188 -20.625 23.421875 C -21.601562 34.710938 -18.164062 40.359375 -10.3125 40.359375 C -5.40625 40.359375 -0.691406 38.585938 3.828125 35.046875 C 11.585938 28.472656 18.265625 17.523438 23.859375 2.203125 C 26.703125 -5.347656 29.445312 -13.566406 32.09375 -22.453125 C 34.75 -31.335938 37.351562 -40.835938 39.90625 -50.953125 C 56.101562 -62.929688 75.890625 -72.210938 99.265625 -78.796875 C 100.140625 -78.984375 100.773438 -79.421875 101.171875 -80.109375 C 101.660156 -80.796875 101.90625 -81.4375 101.90625 -82.03125 C 101.90625 -82.613281 101.660156 -83.15625 101.171875 -83.65625 C 100.679688 -83.945312 99.992188 -83.992188 99.109375 -83.796875 C 76.828125 -77.609375 57.734375 -69.066406 41.828125 -58.171875 L 43.296875 -63.765625 C 44.273438 -67.492188 45.253906 -71.269531 46.234375 -75.09375 C 47.222656 -78.925781 48.207031 -82.757812 49.1875 -86.59375 C 49.476562 -87.769531 48.742188 -88.503906 46.984375 -88.796875 Z M 46.984375 -88.796875 "/></g></g></g><g fill="#ffffff" fill-opacity="1"><g transform="translate(732.677925, 597.443922)"><g><path d="M 11.640625 -83.9375 C 13.015625 -83.9375 14.191406 -83.59375 15.171875 -82.90625 C 15.660156 -82.519531 16.175781 -82.128906 16.71875 -81.734375 C 17.257812 -81.335938 17.722656 -80.945312 18.109375 -80.5625 C 15.660156 -76.726562 13.207031 -73.289062 10.75 -70.25 C 8.289062 -67.007812 6.179688 -65.390625 4.421875 -65.390625 C 3.441406 -65.390625 2.800781 -65.832031 2.5 -66.71875 C 2.113281 -67.5 1.921875 -68.332031 1.921875 -69.21875 C 1.921875 -71.570312 2.601562 -74.222656 3.96875 -77.171875 C 5.25 -79.921875 6.921875 -81.929688 8.984375 -83.203125 C 9.960938 -83.691406 10.847656 -83.9375 11.640625 -83.9375 Z M 27.546875 -87.765625 C 27.347656 -88.453125 27.003906 -88.847656 26.515625 -88.953125 C 25.828125 -89.242188 25.140625 -89.242188 24.453125 -88.953125 C 23.660156 -88.660156 23.066406 -88.171875 22.671875 -87.484375 C 22.484375 -87.179688 22.265625 -86.882812 22.015625 -86.59375 C 21.773438 -86.300781 21.554688 -85.957031 21.359375 -85.5625 C 18.609375 -87.914062 16.054688 -89.09375 13.703125 -89.09375 C 11.140625 -89.09375 9.078125 -88.601562 7.515625 -87.625 C 3.972656 -85.664062 1.269531 -82.769531 -0.59375 -78.9375 C -2.550781 -74.8125 -3.484375 -71.128906 -3.390625 -67.890625 C -3.097656 -62.691406 -0.9375 -60.09375 3.09375 -60.09375 C 5.550781 -60.09375 8.003906 -61.171875 10.453125 -63.328125 C 13.003906 -65.585938 15.410156 -68.335938 17.671875 -71.578125 C 17.960938 -72.066406 18.253906 -72.53125 18.546875 -72.96875 C 18.847656 -73.414062 19.195312 -73.832031 19.59375 -74.21875 C 19.289062 -71.375 19.828125 -68.675781 21.203125 -66.125 C 22.578125 -63.46875 25.671875 -61.703125 30.484375 -60.828125 C 31.953125 -60.523438 33.472656 -60.375 35.046875 -60.375 C 46.046875 -60.375 59.988281 -66.070312 76.875 -77.46875 C 77.5625 -77.851562 78.050781 -78.441406 78.34375 -79.234375 C 78.539062 -80.015625 78.492188 -80.648438 78.203125 -81.140625 C 77.804688 -81.734375 77.316406 -82.078125 76.734375 -82.171875 C 75.941406 -82.171875 75.203125 -81.976562 74.515625 -81.59375 C 56.742188 -69.613281 42.800781 -64.410156 32.6875 -65.984375 C 28.070312 -66.671875 25.519531 -68.679688 25.03125 -72.015625 C 24.539062 -75.160156 25.128906 -79.1875 26.796875 -84.09375 C 27.390625 -86.050781 27.640625 -87.273438 27.546875 -87.765625 Z M 27.546875 -87.765625 "/></g></g></g><g fill="#ffffff" fill-opacity="1"><g transform="translate(3.52063, 876.37331)"><g><path d="M 50 -14.875 C 48.1875 -10.207031 45.226562 -6.460938 41.125 -3.640625 C 36.976562 -0.734375 32.425781 0.71875 27.46875 0.71875 C 20.738281 0.71875 14.992188 -1.757812 10.234375 -6.71875 C 5.554688 -11.582031 3.21875 -17.425781 3.21875 -24.25 C 3.21875 -27.632812 3.835938 -30.851562 5.078125 -33.90625 C 6.316406 -36.90625 8.035156 -39.550781 10.234375 -41.84375 C 14.992188 -46.800781 20.738281 -49.28125 27.46875 -49.28125 C 32.425781 -49.28125 36.957031 -47.875 41.0625 -45.0625 C 45.15625 -42.195312 48.109375 -38.453125 49.921875 -33.828125 L 44.421875 -33.828125 C 41.796875 -38.648438 37.882812 -41.847656 32.6875 -43.421875 C 30.96875 -43.898438 28.988281 -44.140625 26.75 -44.140625 C 24.507812 -44.140625 22.222656 -43.613281 19.890625 -42.5625 C 17.546875 -41.46875 15.519531 -40.015625 13.8125 -38.203125 C 10.082031 -34.335938 8.21875 -29.6875 8.21875 -24.25 C 8.21875 -18.863281 10.082031 -14.238281 13.8125 -10.375 C 17.570312 -6.414062 22.125 -4.4375 27.46875 -4.4375 C 31.09375 -4.4375 34.429688 -5.390625 37.484375 -7.296875 C 40.484375 -9.203125 42.820312 -11.726562 44.5 -14.875 Z M 50 -14.875 "/></g></g></g><g fill="#ffffff" fill-opacity="1"><g transform="translate(59.292049, 876.37331)"><g><path d="M 13.234375 -17.890625 L 30.90625 -17.890625 L 22.109375 -40.265625 Z M 43.421875 0 L 37.984375 0 L 32.765625 -13.234375 L 11.375 -13.234375 L 6.15625 0 L 0.71875 0 L 22.109375 -52 Z M 43.421875 0 "/></g></g></g><g fill="#ffffff" fill-opacity="1"><g transform="translate(110.131693, 876.37331)"><g><path d="M 37.125 -13.59375 C 37.125 -11.59375 36.671875 -9.6875 35.765625 -7.875 C 34.859375 -6.0625 33.644531 -4.582031 32.125 -3.4375 C 29.164062 -1.144531 25.207031 0 20.25 0 L 5.359375 0 L 5.359375 -48.640625 L 18.53125 -48.640625 C 25.632812 -48.640625 30.257812 -46.445312 32.40625 -42.0625 C 33.164062 -40.488281 33.546875 -38.890625 33.546875 -37.265625 C 33.546875 -35.640625 33.425781 -34.378906 33.1875 -33.484375 C 32.90625 -32.523438 32.523438 -31.617188 32.046875 -30.765625 C 30.953125 -28.898438 29.546875 -27.585938 27.828125 -26.828125 C 30.691406 -26.066406 32.957031 -24.539062 34.625 -22.25 C 36.289062 -19.90625 37.125 -17.019531 37.125 -13.59375 Z M 28.546875 -36.484375 C 28.546875 -41.390625 25.207031 -43.84375 18.53125 -43.84375 L 10.375 -43.84375 L 10.375 -28.6875 L 19.953125 -28.6875 C 22.523438 -28.6875 24.601562 -29.328125 26.1875 -30.609375 C 27.757812 -31.898438 28.546875 -33.859375 28.546875 -36.484375 Z M 32.125 -14.515625 C 32.125 -15.953125 31.859375 -17.21875 31.328125 -18.3125 C 30.753906 -19.40625 30.039062 -20.359375 29.1875 -21.171875 C 27.28125 -22.835938 25.035156 -23.671875 22.453125 -23.671875 L 10.375 -23.671875 L 10.375 -4.796875 L 21.671875 -4.796875 C 24.722656 -4.796875 27.226562 -5.675781 29.1875 -7.4375 C 31.144531 -9.25 32.125 -11.609375 32.125 -14.515625 Z M 32.125 -14.515625 "/></g></g></g><g fill="#ffffff" fill-opacity="1"><g transform="translate(155.394459, 876.37331)"><g><path d="M 10.375 0 L 5.359375 0 L 5.359375 -48.640625 L 10.375 -48.640625 Z M 10.375 0 "/></g></g></g><g fill="#ffffff" fill-opacity="1"><g transform="translate(177.849386, 876.37331)"><g><path d="M 10.375 -35.84375 L 10.375 0 L 5.359375 0 L 5.359375 -51.71875 L 32.6875 -12.875 L 32.6875 -48.640625 L 37.703125 -48.640625 L 37.703125 3 Z M 10.375 -35.84375 "/></g></g></g><g fill="#ffffff" fill-opacity="1"><g transform="translate(227.616539, 876.37331)"><g><path d="M 34.265625 0 L 5.359375 0 L 5.359375 -48.640625 L 34.265625 -48.640625 L 34.265625 -43.984375 L 10.375 -43.984375 L 10.375 -26.6875 L 33.546875 -26.6875 L 33.546875 -21.953125 L 10.375 -21.953125 L 10.375 -4.65625 L 34.265625 -4.65625 Z M 34.265625 0 "/></g></g></g><g fill="#ffffff" fill-opacity="1"><g transform="translate(273.951796, 876.37331)"><g><path d="M 1.4375 -44.140625 L 1.4375 -48.78125 L 30.046875 -48.78125 L 30.046875 -44.140625 L 18.234375 -44.140625 L 18.234375 -0.140625 L 13.234375 -0.140625 L 13.234375 -44.140625 Z M 1.4375 -44.140625 "/></g></g></g><g fill="#ffffff" fill-opacity="1"><g transform="translate(312.136266, 876.37331)"><g/></g></g><g fill="#ffffff" fill-opacity="1"><g transform="translate(338.166063, 876.37331)"><g><path d="M 10.375 -24.109375 L 21.671875 -24.109375 C 24.484375 -24.109375 26.796875 -25.0625 28.609375 -26.96875 C 30.472656 -28.875 31.40625 -31.257812 31.40625 -34.125 C 31.40625 -36.976562 30.519531 -39.3125 28.75 -41.125 C 26.988281 -42.9375 24.628906 -43.84375 21.671875 -43.84375 L 10.375 -43.84375 Z M 36.40625 -33.984375 C 36.40625 -29.734375 34.90625 -26.203125 31.90625 -23.390625 C 28.945312 -20.617188 25.296875 -19.234375 20.953125 -19.234375 L 10.375 -19.234375 L 10.375 0 L 5.359375 0 L 5.359375 -48.640625 L 20.953125 -48.640625 C 25.242188 -48.640625 28.894531 -47.28125 31.90625 -44.5625 C 34.90625 -41.800781 36.40625 -38.273438 36.40625 -33.984375 Z M 36.40625 -33.984375 "/></g></g></g><g fill="#ffffff" fill-opacity="1"><g transform="translate(382.713864, 876.37331)"><g><path d="M 10.375 -5 L 27.75 -5 L 27.75 0 L 5.359375 0 L 5.359375 -48.640625 L 10.375 -48.640625 Z M 10.375 -5 "/></g></g></g><g fill="#ffffff" fill-opacity="1"><g transform="translate(418.610418, 876.37331)"><g><path d="M 40.5625 -16.09375 C 40.5625 -10.84375 38.84375 -6.691406 35.40625 -3.640625 C 32.164062 -0.785156 27.847656 0.640625 22.453125 0.640625 C 17.023438 0.640625 12.6875 -0.785156 9.4375 -3.640625 C 6.007812 -6.691406 4.296875 -10.84375 4.296875 -16.09375 L 4.296875 -48.640625 L 9.296875 -48.640625 L 9.296875 -15.375 C 9.296875 -11.707031 10.632812 -8.894531 13.3125 -6.9375 C 15.59375 -5.21875 18.640625 -4.359375 22.453125 -4.359375 C 28.421875 -4.359375 32.429688 -6.363281 34.484375 -10.375 C 35.191406 -11.757812 35.546875 -13.425781 35.546875 -15.375 L 35.546875 -48.640625 L 40.5625 -48.640625 Z M 40.5625 -16.09375 "/></g></g></g><g fill="#ffffff" fill-opacity="1"><g transform="translate(470.165028, 876.37331)"><g><path d="M 10.375 -24.03125 L 21.671875 -24.03125 C 24.484375 -24.03125 26.796875 -24.984375 28.609375 -26.890625 C 30.472656 -28.847656 31.40625 -31.257812 31.40625 -34.125 C 31.40625 -36.9375 30.519531 -39.269531 28.75 -41.125 C 26.988281 -42.9375 24.628906 -43.84375 21.671875 -43.84375 L 10.375 -43.84375 Z M 36.40625 -33.984375 C 36.40625 -29.734375 34.90625 -26.203125 31.90625 -23.390625 C 29.226562 -20.910156 26.007812 -19.550781 22.25 -19.3125 L 37.203125 0 L 30.46875 0 L 16.234375 -19.234375 L 10.375 -19.234375 L 10.375 0 L 5.359375 0 L 5.359375 -48.640625 L 20.953125 -48.640625 C 25.296875 -48.640625 28.945312 -47.28125 31.90625 -44.5625 C 34.90625 -41.695312 36.40625 -38.171875 36.40625 -33.984375 Z M 36.40625 -33.984375 "/></g></g></g><g fill="#ffffff" fill-opacity="1"><g transform="translate(515.78532, 876.37331)"><g><path d="M 10.375 0 L 5.359375 0 L 5.359375 -48.640625 L 10.375 -48.640625 Z M 10.375 0 "/></g></g></g><g fill="#ffffff" fill-opacity="1"><g transform="translate(538.240246, 876.37331)"><g><path d="M 43.140625 -24.328125 C 43.140625 -20.796875 42.492188 -17.550781 41.203125 -14.59375 C 39.867188 -11.582031 38.082031 -9.003906 35.84375 -6.859375 C 33.59375 -4.710938 30.941406 -3.046875 27.890625 -1.859375 C 24.835938 -0.617188 21.570312 0 18.09375 0 L 5.359375 0 L 5.359375 -48.640625 L 18.09375 -48.640625 C 21.570312 -48.640625 24.835938 -48.046875 27.890625 -46.859375 C 30.941406 -45.617188 33.59375 -43.925781 35.84375 -41.78125 C 38.082031 -39.632812 39.867188 -37.082031 41.203125 -34.125 C 42.492188 -31.113281 43.140625 -27.847656 43.140625 -24.328125 Z M 38.265625 -24.328125 C 38.265625 -29.859375 36.3125 -34.484375 32.40625 -38.203125 C 28.59375 -41.828125 23.867188 -43.640625 18.234375 -43.640625 L 10.375 -43.640625 L 10.375 -5 L 18.234375 -5 C 23.867188 -5 28.59375 -6.8125 32.40625 -10.4375 C 36.3125 -14.15625 38.265625 -18.785156 38.265625 -24.328125 Z M 38.265625 -24.328125 "/></g></g></g><g fill="#ffffff" fill-opacity="1"><g transform="translate(591.296316, 876.37331)"><g><path d="M 10.375 0 L 5.359375 0 L 5.359375 -48.640625 L 10.375 -48.640625 Z M 10.375 0 "/></g></g></g><g fill="#ffffff" fill-opacity="1"><g transform="translate(613.751242, 876.37331)"><g><path d="M 18.890625 -22.96875 C 8.960938 -25.25 4 -29.488281 4 -35.6875 C 4 -40.269531 5.597656 -43.707031 8.796875 -46 C 11.992188 -48.238281 15.738281 -49.359375 20.03125 -49.359375 C 29.519531 -49.359375 35.144531 -45.828125 36.90625 -38.765625 L 31.46875 -38.765625 C 30.519531 -42.960938 26.707031 -45.0625 20.03125 -45.0625 C 15.351562 -45.0625 12.085938 -43.679688 10.234375 -40.921875 C 9.515625 -39.867188 9.15625 -38.554688 9.15625 -36.984375 C 9.15625 -33.972656 10.773438 -31.660156 14.015625 -30.046875 C 15.546875 -29.234375 18.789062 -28.179688 23.75 -26.890625 C 28.707031 -25.609375 32.304688 -24.179688 34.546875 -22.609375 C 37.648438 -20.410156 39.203125 -17.332031 39.203125 -13.375 C 39.203125 -8.46875 37.269531 -4.75 33.40625 -2.21875 C 30.164062 -0.113281 26.160156 0.9375 21.390625 0.9375 C 10.609375 0.9375 4.359375 -3.164062 2.640625 -11.375 L 8.578125 -11.375 C 9.484375 -6.21875 13.753906 -3.640625 21.390625 -3.640625 C 26.828125 -3.640625 30.617188 -5.144531 32.765625 -8.15625 C 33.617188 -9.34375 34.046875 -10.960938 34.046875 -13.015625 C 34.046875 -15.015625 33.257812 -16.660156 31.6875 -17.953125 C 29.445312 -19.765625 25.179688 -21.4375 18.890625 -22.96875 Z M 18.890625 -22.96875 "/></g></g></g><g fill="#ffffff" fill-opacity="1"><g transform="translate(661.516473, 876.37331)"><g><path d="M 50 -14.875 C 48.1875 -10.207031 45.226562 -6.460938 41.125 -3.640625 C 36.976562 -0.734375 32.425781 0.71875 27.46875 0.71875 C 20.738281 0.71875 14.992188 -1.757812 10.234375 -6.71875 C 5.554688 -11.582031 3.21875 -17.425781 3.21875 -24.25 C 3.21875 -27.632812 3.835938 -30.851562 5.078125 -33.90625 C 6.316406 -36.90625 8.035156 -39.550781 10.234375 -41.84375 C 14.992188 -46.800781 20.738281 -49.28125 27.46875 -49.28125 C 32.425781 -49.28125 36.957031 -47.875 41.0625 -45.0625 C 45.15625 -42.195312 48.109375 -38.453125 49.921875 -33.828125 L 44.421875 -33.828125 C 41.796875 -38.648438 37.882812 -41.847656 32.6875 -43.421875 C 30.96875 -43.898438 28.988281 -44.140625 26.75 -44.140625 C 24.507812 -44.140625 22.222656 -43.613281 19.890625 -42.5625 C 17.546875 -41.46875 15.519531 -40.015625 13.8125 -38.203125 C 10.082031 -34.335938 8.21875 -29.6875 8.21875 -24.25 C 8.21875 -18.863281 10.082031 -14.238281 13.8125 -10.375 C 17.570312 -6.414062 22.125 -4.4375 27.46875 -4.4375 C 31.09375 -4.4375 34.429688 -5.390625 37.484375 -7.296875 C 40.484375 -9.203125 42.820312 -11.726562 44.5 -14.875 Z M 50 -14.875 "/></g></g></g><g fill="#ffffff" fill-opacity="1"><g transform="translate(720.363929, 876.37331)"><g><path d="M 10.375 0 L 5.359375 0 L 5.359375 -48.640625 L 10.375 -48.640625 Z M 10.375 0 "/></g></g></g><g fill="#ffffff" fill-opacity="1"><g transform="translate(742.818855, 876.37331)"><g><path d="M 10.375 -24.109375 L 21.671875 -24.109375 C 24.484375 -24.109375 26.796875 -25.0625 28.609375 -26.96875 C 30.472656 -28.875 31.40625 -31.257812 31.40625 -34.125 C 31.40625 -36.976562 30.519531 -39.3125 28.75 -41.125 C 26.988281 -42.9375 24.628906 -43.84375 21.671875 -43.84375 L 10.375 -43.84375 Z M 36.40625 -33.984375 C 36.40625 -29.734375 34.90625 -26.203125 31.90625 -23.390625 C 28.945312 -20.617188 25.296875 -19.234375 20.953125 -19.234375 L 10.375 -19.234375 L 10.375 0 L 5.359375 0 L 5.359375 -48.640625 L 20.953125 -48.640625 C 25.242188 -48.640625 28.894531 -47.28125 31.90625 -44.5625 C 34.90625 -41.800781 36.40625 -38.273438 36.40625 -33.984375 Z M 36.40625 -33.984375 "/></g></g></g><g fill="#ffffff" fill-opacity="1"><g transform="translate(787.36657, 876.37331)"><g><path d="M 10.375 -5 L 27.75 -5 L 27.75 0 L 5.359375 0 L 5.359375 -48.640625 L 10.375 -48.640625 Z M 10.375 -5 "/></g></g></g><g fill="#ffffff" fill-opacity="1"><g transform="translate(823.263124, 876.37331)"><g><path d="M 10.375 0 L 5.359375 0 L 5.359375 -48.640625 L 10.375 -48.640625 Z M 10.375 0 "/></g></g></g><g fill="#ffffff" fill-opacity="1"><g transform="translate(845.71805, 876.37331)"><g><path d="M 10.375 -35.84375 L 10.375 0 L 5.359375 0 L 5.359375 -51.71875 L 32.6875 -12.875 L 32.6875 -48.640625 L 37.703125 -48.640625 L 37.703125 3 Z M 10.375 -35.84375 "/></g></g></g><g fill="#ffffff" fill-opacity="1"><g transform="translate(895.485245, 876.37331)"><g><path d="M 13.234375 -17.890625 L 30.90625 -17.890625 L 22.109375 -40.265625 Z M 43.421875 0 L 37.984375 0 L 32.765625 -13.234375 L 11.375 -13.234375 L 6.15625 0 L 0.71875 0 L 22.109375 -52 Z M 43.421875 0 "/></g></g></g><g fill="#ffffff" fill-opacity="1"><g transform="translate(946.324847, 876.37331)"><g><path d="M 10.375 0 L 5.359375 0 L 5.359375 -48.640625 L 10.375 -48.640625 Z M 10.375 0 "/></g></g></g><g fill="#ffffff" fill-opacity="1"><g transform="translate(968.779773, 876.37331)"><g><path d="M 10.375 -24.03125 L 21.671875 -24.03125 C 24.484375 -24.03125 26.796875 -24.984375 28.609375 -26.890625 C 30.472656 -28.847656 31.40625 -31.257812 31.40625 -34.125 C 31.40625 -36.9375 30.519531 -39.269531 28.75 -41.125 C 26.988281 -42.9375 24.628906 -43.84375 21.671875 -43.84375 L 10.375 -43.84375 Z M 36.40625 -33.984375 C 36.40625 -29.734375 34.90625 -26.203125 31.90625 -23.390625 C 29.226562 -20.910156 26.007812 -19.550781 22.25 -19.3125 L 37.203125 0 L 30.46875 0 L 16.234375 -19.234375 L 10.375 -19.234375 L 10.375 0 L 5.359375 0 L 5.359375 -48.640625 L 20.953125 -48.640625 C 25.296875 -48.640625 28.945312 -47.28125 31.90625 -44.5625 C 34.90625 -41.695312 36.40625 -38.171875 36.40625 -33.984375 Z M 36.40625 -33.984375 "/></g></g></g><g fill="#ffffff" fill-opacity="1"><g transform="translate(1014.400065, 876.37331)"><g><path d="M 34.265625 0 L 5.359375 0 L 5.359375 -48.640625 L 34.265625 -48.640625 L 34.265625 -43.984375 L 10.375 -43.984375 L 10.375 -26.6875 L 33.546875 -26.6875 L 33.546875 -21.953125 L 10.375 -21.953125 L 10.375 -4.65625 L 34.265625 -4.65625 Z M 34.265625 0 "/></g></g></g></g></g></svg>